<?xml version="1.0" standalone="no"?><!-- Created with ZXing.Net (http://zxingnet.codeplex.com/) --><!DOCTYPE svg PUBLIC "-//W3C//DTD SVG 1.1//EN" "http://www.w3.org/Graphics/SVG/1.1/DTD/svg11.dtd"><svg xmlns="http://www.w3.org/2000/svg" version="1.2" baseProfile="tiny" shape-rendering="crispEdges" viewBox="0 0 260 194" viewport-fill="rgb(255,255,255)" viewport-fill-opacity="1" fill="rgb(0,0,0)" fill-opacity="1" style="background-color:rgb(255,255,255);background-color:rgba(1);"><rect x="57" y="24" width="5" height="35"/><rect x="57" y="64" width="10" height="5"/><rect x="57" y="84" width="25" height="5"/><rect x="57" y="94" width="20" height="5"/><rect x="57" y="104" width="5" height="5"/><rect x="57" y="114" width="5" height="5"/><rect x="57" y="124" width="5" height="5"/><rect x="57" y="134" width="5" height="35"/><rect x="62" y="24" width="30" height="5"/><rect x="62" y="54" width="30" height="5"/><rect x="62" y="74" width="5" height="15"/><rect x="62" y="134" width="30" height="5"/><rect x="62" y="164" width="30" height="5"/><rect x="67" y="34" width="15" height="15"/><rect x="67" y="69" width="5" height="5"/><rect x="67" y="79" width="5" height="10"/><rect x="67" y="99" width="5" height="10"/><rect x="67" y="114" width="5" height="15"/><rect x="67" y="144" width="15" height="15"/><rect x="72" y="64" width="5" height="5"/><rect x="72" y="99" width="5" height="5"/><rect x="72" y="109" width="5" height="10"/><rect x="72" y="124" width="10" height="5"/><rect x="77" y="69" width="5" height="10"/><rect x="77" y="104" width="10" height="10"/><rect x="77" y="119" width="5" height="10"/><rect x="82" y="94" width="25" height="5"/><rect x="82" y="114" width="5" height="10"/><rect x="87" y="29" width="5" height="30"/><rect x="87" y="64" width="10" height="5"/><rect x="87" y="74" width="5" height="5"/><rect x="87" y="84" width="10" height="5"/><rect x="87" y="104" width="5" height="5"/><rect x="87" y="114" width="10" height="5"/><rect x="87" y="124" width="15" height="5"/><rect x="87" y="139" width="5" height="30"/><rect x="92" y="69" width="10" height="5"/><rect x="92" y="79" width="5" height="10"/><rect x="97" y="29" width="5" height="10"/><rect x="97" y="44" width="5" height="20"/><rect x="97" y="79" width="5" height="5"/><rect x="97" y="104" width="10" height="10"/><rect x="97" y="119" width="5" height="20"/><rect x="97" y="149" width="5" height="5"/><rect x="97" y="159" width="10" height="10"/><rect x="102" y="24" width="5" height="5"/><rect x="102" y="34" width="15" height="10"/><rect x="102" y="49" width="5" height="5"/><rect x="102" y="59" width="5" height="5"/><rect x="102" y="74" width="10" height="5"/><rect x="102" y="114" width="10" height="10"/><rect x="102" y="129" width="5" height="20"/><rect x="107" y="54" width="5" height="5"/><rect x="107" y="64" width="5" height="15"/><rect x="107" y="89" width="15" height="5"/><rect x="107" y="124" width="15" height="5"/><rect x="107" y="134" width="25" height="5"/><rect x="107" y="144" width="10" height="20"/><rect x="112" y="29" width="5" height="15"/><rect x="112" y="49" width="5" height="5"/><rect x="112" y="69" width="5" height="5"/><rect x="112" y="104" width="5" height="5"/><rect x="112" y="119" width="5" height="45"/><rect x="117" y="24" width="10" height="15"/><rect x="117" y="54" width="5" height="10"/><rect x="117" y="84" width="5" height="20"/><rect x="117" y="129" width="10" height="15"/><rect x="117" y="164" width="10" height="5"/><rect x="122" y="39" width="10" height="15"/><rect x="122" y="99" width="10" height="10"/><rect x="122" y="114" width="5" height="10"/><rect x="122" y="149" width="10" height="10"/><rect x="127" y="29" width="10" height="5"/><rect x="127" y="54" width="5" height="10"/><rect x="127" y="69" width="10" height="5"/><rect x="127" y="79" width="5" height="5"/><rect x="127" y="124" width="10" height="5"/><rect x="127" y="144" width="5" height="15"/><rect x="132" y="39" width="5" height="5"/><rect x="132" y="64" width="5" height="10"/><rect x="132" y="99" width="5" height="5"/><rect x="132" y="144" width="15" height="5"/><rect x="137" y="24" width="20" height="5"/><rect x="137" y="34" width="25" height="5"/><rect x="137" y="44" width="15" height="5"/><rect x="137" y="54" width="5" height="5"/><rect x="137" y="64" width="5" height="5"/><rect x="137" y="104" width="10" height="10"/><rect x="137" y="134" width="5" height="20"/><rect x="137" y="164" width="10" height="5"/><rect x="142" y="49" width="20" height="5"/><rect x="142" y="59" width="15" height="5"/><rect x="142" y="84" width="5" height="5"/><rect x="142" y="94" width="5" height="30"/><rect x="142" y="149" width="5" height="20"/><rect x="147" y="39" width="5" height="30"/><rect x="147" y="79" width="5" height="5"/><rect x="147" y="99" width="5" height="5"/><rect x="147" y="119" width="10" height="5"/><rect x="147" y="129" width="5" height="15"/><rect x="147" y="159" width="15" height="5"/><rect x="152" y="64" width="5" height="5"/><rect x="152" y="74" width="5" height="5"/><rect x="152" y="84" width="5" height="10"/><rect x="152" y="104" width="15" height="5"/><rect x="152" y="149" width="10" height="15"/><rect x="157" y="29" width="5" height="10"/><rect x="157" y="54" width="5" height="5"/><rect x="157" y="69" width="15" height="5"/><rect x="157" y="84" width="15" height="5"/><rect x="157" y="94" width="5" height="15"/><rect x="157" y="114" width="10" height="5"/><rect x="157" y="124" width="5" height="45"/><rect x="162" y="74" width="5" height="20"/><rect x="162" y="109" width="5" height="20"/><rect x="162" y="144" width="10" height="10"/><rect x="167" y="24" width="5" height="35"/><rect x="167" y="64" width="5" height="10"/><rect x="167" y="94" width="5" height="10"/><rect x="167" y="109" width="10" height="5"/><rect x="167" y="119" width="5" height="10"/><rect x="167" y="134" width="5" height="5"/><rect x="167" y="159" width="5" height="10"/><rect x="172" y="24" width="30" height="5"/><rect x="172" y="54" width="30" height="5"/><rect x="172" y="64" width="10" height="5"/><rect x="172" y="79" width="10" height="5"/><rect x="172" y="89" width="5" height="5"/><rect x="172" y="104" width="5" height="15"/><rect x="172" y="124" width="10" height="5"/><rect x="172" y="144" width="10" height="5"/><rect x="172" y="164" width="10" height="5"/><rect x="177" y="34" width="15" height="15"/><rect x="177" y="129" width="5" height="40"/><rect x="182" y="69" width="5" height="10"/><rect x="182" y="84" width="5" height="5"/><rect x="182" y="94" width="5" height="10"/><rect x="182" y="109" width="5" height="5"/><rect x="182" y="139" width="20" height="5"/><rect x="182" y="149" width="10" height="10"/><rect x="187" y="64" width="10" height="5"/><rect x="187" y="74" width="10" height="10"/><rect x="187" y="94" width="15" height="5"/><rect x="187" y="124" width="5" height="10"/><rect x="192" y="84" width="10" height="5"/><rect x="192" y="99" width="5" height="10"/><rect x="192" y="114" width="10" height="10"/><rect x="192" y="129" width="5" height="15"/><rect x="192" y="149" width="5" height="5"/><rect x="192" y="159" width="5" height="10"/><rect x="197" y="29" width="5" height="30"/><rect x="197" y="69" width="5" height="5"/><rect x="197" y="109" width="5" height="15"/><rect x="197" y="129" width="5" height="5"/><rect x="197" y="144" width="5" height="5"/><rect x="197" y="154" width="5" height="5"/></svg>