<?xml version="1.0" standalone="no"?><!-- Created with ZXing.Net (http://zxingnet.codeplex.com/) --><!DOCTYPE svg PUBLIC "-//W3C//DTD SVG 1.1//EN" "http://www.w3.org/Graphics/SVG/1.1/DTD/svg11.dtd"><svg xmlns="http://www.w3.org/2000/svg" version="1.2" baseProfile="tiny" shape-rendering="crispEdges" viewBox="0 0 460 404" viewport-fill="rgb(255,255,255)" viewport-fill-opacity="1" fill="rgb(0,0,0)" fill-opacity="1" style="background-color:rgb(255,255,255);background-color:rgba(1);"><rect x="80" y="52" width="12" height="84"/><rect x="80" y="148" width="12" height="24"/><rect x="80" y="184" width="12" height="72"/><rect x="80" y="268" width="12" height="84"/><rect x="92" y="52" width="72" height="12"/><rect x="92" y="124" width="72" height="12"/><rect x="92" y="148" width="12" height="12"/><rect x="92" y="172" width="12" height="12"/><rect x="92" y="196" width="12" height="36"/><rect x="92" y="268" width="72" height="12"/><rect x="92" y="340" width="72" height="12"/><rect x="104" y="76" width="36" height="36"/><rect x="104" y="160" width="12" height="12"/><rect x="104" y="184" width="12" height="12"/><rect x="104" y="208" width="36" height="12"/><rect x="104" y="232" width="12" height="24"/><rect x="104" y="292" width="36" height="36"/><rect x="116" y="148" width="24" height="12"/><rect x="116" y="196" width="24" height="36"/><rect x="128" y="160" width="24" height="12"/><rect x="140" y="172" width="12" height="24"/><rect x="140" y="220" width="24" height="12"/><rect x="140" y="244" width="24" height="12"/><rect x="152" y="64" width="12" height="72"/><rect x="152" y="148" width="12" height="12"/><rect x="152" y="172" width="12" height="12"/><rect x="152" y="196" width="12" height="12"/><rect x="152" y="280" width="12" height="72"/><rect x="164" y="160" width="24" height="12"/><rect x="164" y="184" width="24" height="12"/><rect x="164" y="232" width="12" height="12"/><rect x="176" y="52" width="48" height="12"/><rect x="176" y="124" width="12" height="24"/><rect x="176" y="172" width="12" height="24"/><rect x="176" y="208" width="12" height="24"/><rect x="176" y="244" width="12" height="24"/><rect x="176" y="292" width="12" height="24"/><rect x="176" y="328" width="12" height="24"/><rect x="188" y="76" width="12" height="12"/><rect x="188" y="112" width="12" height="12"/><rect x="188" y="136" width="12" height="24"/><rect x="188" y="172" width="12" height="12"/><rect x="188" y="196" width="24" height="12"/><rect x="188" y="220" width="12" height="24"/><rect x="188" y="316" width="12" height="12"/><rect x="188" y="340" width="36" height="12"/><rect x="200" y="88" width="24" height="24"/><rect x="200" y="124" width="12" height="12"/><rect x="200" y="160" width="12" height="12"/><rect x="200" y="208" width="12" height="12"/><rect x="200" y="244" width="12" height="12"/><rect x="200" y="268" width="24" height="12"/><rect x="200" y="328" width="24" height="24"/><rect x="212" y="64" width="12" height="60"/><rect x="212" y="232" width="12" height="12"/><rect x="212" y="304" width="12" height="48"/><rect x="224" y="64" width="12" height="12"/><rect x="224" y="100" width="12" height="12"/><rect x="224" y="124" width="12" height="36"/><rect x="224" y="172" width="24" height="12"/><rect x="224" y="196" width="12" height="24"/><rect x="224" y="244" width="12" height="24"/><rect x="224" y="280" width="12" height="24"/><rect x="224" y="316" width="24" height="12"/><rect x="236" y="52" width="12" height="12"/><rect x="236" y="76" width="12" height="24"/><rect x="236" y="112" width="24" height="12"/><rect x="236" y="136" width="12" height="12"/><rect x="236" y="160" width="12" height="24"/><rect x="236" y="208" width="12" height="12"/><rect x="236" y="244" width="12" height="12"/><rect x="236" y="268" width="12" height="24"/><rect x="236" y="304" width="12" height="24"/><rect x="248" y="64" width="12" height="12"/><rect x="248" y="100" width="12" height="36"/><rect x="248" y="160" width="48" height="12"/><rect x="248" y="184" width="12" height="12"/><rect x="248" y="268" width="12" height="12"/><rect x="248" y="292" width="12" height="24"/><rect x="260" y="88" width="24" height="12"/><rect x="260" y="136" width="24" height="12"/><rect x="260" y="172" width="12" height="12"/><rect x="260" y="208" width="12" height="48"/><rect x="260" y="280" width="24" height="24"/><rect x="272" y="64" width="12" height="12"/><rect x="272" y="100" width="12" height="72"/><rect x="272" y="196" width="12" height="24"/><rect x="272" y="232" width="12" height="84"/><rect x="272" y="340" width="24" height="12"/><rect x="284" y="208" width="12" height="48"/><rect x="284" y="292" width="48" height="12"/><rect x="284" y="316" width="12" height="12"/><rect x="296" y="52" width="12" height="84"/><rect x="296" y="148" width="12" height="12"/><rect x="296" y="172" width="24" height="12"/><rect x="296" y="196" width="12" height="12"/><rect x="296" y="220" width="12" height="12"/><rect x="296" y="244" width="36" height="12"/><rect x="296" y="268" width="12" height="12"/><rect x="296" y="304" width="12" height="12"/><rect x="308" y="52" width="72" height="12"/><rect x="308" y="124" width="72" height="12"/><rect x="308" y="160" width="12" height="36"/><rect x="308" y="232" width="12" height="24"/><rect x="308" y="328" width="24" height="12"/><rect x="320" y="76" width="36" height="36"/><rect x="320" y="160" width="48" height="12"/><rect x="320" y="208" width="12" height="24"/><rect x="320" y="256" width="12" height="48"/><rect x="320" y="316" width="12" height="24"/><rect x="332" y="172" width="12" height="24"/><rect x="332" y="220" width="24" height="24"/><rect x="332" y="316" width="48" height="12"/><rect x="332" y="340" width="12" height="12"/><rect x="344" y="184" width="36" height="12"/><rect x="344" y="244" width="24" height="24"/><rect x="344" y="328" width="36" height="12"/><rect x="356" y="208" width="12" height="24"/><rect x="356" y="304" width="24" height="36"/><rect x="368" y="64" width="12" height="72"/><rect x="368" y="148" width="12" height="12"/><rect x="368" y="172" width="12" height="36"/><rect x="368" y="220" width="12" height="24"/><rect x="368" y="268" width="12" height="12"/><rect x="368" y="340" width="12" height="12"/></svg>