<?xml version="1.0" standalone="no"?><!-- Created with ZXing.Net (http://zxingnet.codeplex.com/) --><!DOCTYPE svg PUBLIC "-//W3C//DTD SVG 1.1//EN" "http://www.w3.org/Graphics/SVG/1.1/DTD/svg11.dtd"><svg xmlns="http://www.w3.org/2000/svg" version="1.2" baseProfile="tiny" shape-rendering="crispEdges" viewBox="0 0 460 404" viewport-fill="rgb(255,255,255)" viewport-fill-opacity="1" fill="rgb(0,0,0)" fill-opacity="1" style="background-color:rgb(255,255,255);background-color:rgba(1);"><rect x="85" y="57" width="10" height="70"/><rect x="85" y="137" width="20" height="20"/><rect x="85" y="197" width="10" height="20"/><rect x="85" y="237" width="10" height="10"/><rect x="85" y="257" width="10" height="10"/><rect x="85" y="277" width="10" height="70"/><rect x="95" y="57" width="60" height="10"/><rect x="95" y="117" width="60" height="10"/><rect x="95" y="177" width="40" height="10"/><rect x="95" y="197" width="10" height="10"/><rect x="95" y="277" width="60" height="10"/><rect x="95" y="337" width="60" height="10"/><rect x="105" y="77" width="30" height="30"/><rect x="105" y="157" width="20" height="10"/><rect x="105" y="257" width="10" height="10"/><rect x="105" y="297" width="30" height="30"/><rect x="115" y="137" width="10" height="10"/><rect x="115" y="167" width="20" height="30"/><rect x="115" y="207" width="10" height="40"/><rect x="125" y="147" width="20" height="10"/><rect x="125" y="197" width="40" height="10"/><rect x="125" y="237" width="10" height="10"/><rect x="135" y="157" width="30" height="10"/><rect x="135" y="187" width="10" height="50"/><rect x="135" y="257" width="20" height="10"/><rect x="145" y="67" width="10" height="60"/><rect x="145" y="137" width="20" height="10"/><rect x="145" y="177" width="20" height="10"/><rect x="145" y="217" width="10" height="10"/><rect x="145" y="237" width="10" height="10"/><rect x="145" y="287" width="10" height="60"/><rect x="155" y="167" width="10" height="50"/><rect x="165" y="67" width="10" height="20"/><rect x="165" y="97" width="10" height="40"/><rect x="165" y="147" width="10" height="10"/><rect x="165" y="167" width="10" height="10"/><rect x="165" y="217" width="10" height="10"/><rect x="165" y="237" width="30" height="10"/><rect x="165" y="267" width="10" height="20"/><rect x="165" y="307" width="10" height="10"/><rect x="165" y="327" width="10" height="20"/><rect x="175" y="57" width="30" height="10"/><rect x="175" y="127" width="10" height="10"/><rect x="175" y="157" width="20" height="10"/><rect x="175" y="197" width="30" height="10"/><rect x="175" y="227" width="10" height="20"/><rect x="175" y="257" width="10" height="10"/><rect x="175" y="277" width="20" height="10"/><rect x="175" y="317" width="40" height="10"/><rect x="175" y="337" width="10" height="10"/><rect x="185" y="67" width="60" height="10"/><rect x="185" y="87" width="10" height="20"/><rect x="185" y="117" width="10" height="10"/><rect x="185" y="137" width="10" height="10"/><rect x="185" y="187" width="10" height="40"/><rect x="185" y="247" width="10" height="10"/><rect x="185" y="287" width="40" height="20"/><rect x="195" y="97" width="10" height="10"/><rect x="195" y="167" width="10" height="10"/><rect x="195" y="207" width="10" height="30"/><rect x="195" y="257" width="10" height="10"/><rect x="205" y="107" width="10" height="60"/><rect x="205" y="177" width="10" height="20"/><rect x="205" y="207" width="10" height="20"/><rect x="205" y="237" width="30" height="10"/><rect x="205" y="267" width="10" height="10"/><rect x="205" y="307" width="10" height="40"/><rect x="215" y="57" width="30" height="20"/><rect x="215" y="97" width="40" height="10"/><rect x="215" y="137" width="10" height="20"/><rect x="215" y="167" width="10" height="20"/><rect x="215" y="207" width="30" height="10"/><rect x="215" y="227" width="10" height="20"/><rect x="215" y="257" width="20" height="10"/><rect x="215" y="307" width="10" height="10"/><rect x="215" y="327" width="50" height="10"/><rect x="225" y="77" width="50" height="10"/><rect x="225" y="107" width="10" height="40"/><rect x="225" y="157" width="10" height="20"/><rect x="225" y="277" width="10" height="10"/><rect x="225" y="297" width="10" height="10"/><rect x="225" y="317" width="10" height="20"/><rect x="235" y="87" width="10" height="30"/><rect x="235" y="167" width="20" height="10"/><rect x="235" y="217" width="10" height="10"/><rect x="235" y="287" width="10" height="10"/><rect x="245" y="57" width="10" height="10"/><rect x="245" y="87" width="10" height="20"/><rect x="245" y="117" width="10" height="20"/><rect x="245" y="147" width="10" height="40"/><rect x="245" y="197" width="20" height="10"/><rect x="245" y="227" width="10" height="10"/><rect x="245" y="247" width="10" height="40"/><rect x="245" y="297" width="20" height="10"/><rect x="255" y="127" width="20" height="10"/><rect x="255" y="157" width="10" height="10"/><rect x="255" y="177" width="10" height="50"/><rect x="255" y="237" width="20" height="20"/><rect x="255" y="307" width="10" height="40"/><rect x="265" y="87" width="10" height="50"/><rect x="265" y="187" width="20" height="10"/><rect x="265" y="227" width="10" height="40"/><rect x="265" y="287" width="10" height="10"/><rect x="265" y="307" width="50" height="10"/><rect x="275" y="57" width="10" height="10"/><rect x="275" y="87" width="10" height="10"/><rect x="275" y="107" width="20" height="10"/><rect x="275" y="157" width="10" height="10"/><rect x="275" y="177" width="10" height="20"/><rect x="275" y="217" width="30" height="10"/><rect x="275" y="247" width="10" height="10"/><rect x="275" y="317" width="20" height="20"/><rect x="285" y="67" width="10" height="10"/><rect x="285" y="117" width="10" height="10"/><rect x="285" y="137" width="10" height="20"/><rect x="285" y="177" width="30" height="10"/><rect x="285" y="197" width="10" height="30"/><rect x="285" y="237" width="20" height="10"/><rect x="285" y="257" width="10" height="90"/><rect x="295" y="147" width="10" height="50"/><rect x="295" y="227" width="10" height="40"/><rect x="295" y="297" width="20" height="20"/><rect x="305" y="57" width="10" height="70"/><rect x="305" y="137" width="10" height="20"/><rect x="305" y="197" width="10" height="20"/><rect x="305" y="227" width="20" height="10"/><rect x="305" y="247" width="10" height="20"/><rect x="305" y="277" width="10" height="10"/><rect x="305" y="327" width="10" height="20"/><rect x="315" y="57" width="60" height="10"/><rect x="315" y="117" width="60" height="10"/><rect x="315" y="137" width="20" height="10"/><rect x="315" y="167" width="20" height="10"/><rect x="315" y="187" width="10" height="10"/><rect x="315" y="217" width="10" height="30"/><rect x="315" y="257" width="20" height="10"/><rect x="315" y="297" width="20" height="10"/><rect x="315" y="337" width="20" height="10"/><rect x="325" y="77" width="30" height="30"/><rect x="325" y="267" width="10" height="80"/><rect x="335" y="147" width="10" height="20"/><rect x="335" y="177" width="10" height="10"/><rect x="335" y="197" width="10" height="20"/><rect x="335" y="227" width="10" height="10"/><rect x="335" y="287" width="30" height="10"/><rect x="335" y="307" width="20" height="20"/><rect x="345" y="137" width="20" height="10"/><rect x="345" y="157" width="20" height="20"/><rect x="345" y="197" width="30" height="10"/><rect x="345" y="257" width="10" height="20"/><rect x="355" y="177" width="20" height="10"/><rect x="355" y="207" width="10" height="20"/><rect x="355" y="237" width="20" height="20"/><rect x="355" y="267" width="10" height="40"/><rect x="355" y="327" width="10" height="20"/><rect x="365" y="67" width="10" height="60"/><rect x="365" y="147" width="10" height="10"/><rect x="365" y="227" width="10" height="30"/><rect x="365" y="267" width="10" height="10"/><rect x="365" y="297" width="10" height="10"/><rect x="365" y="317" width="10" height="10"/></svg>