<?xml version="1.0" standalone="no"?><!-- Created with ZXing.Net (http://zxingnet.codeplex.com/) --><!DOCTYPE svg PUBLIC "-//W3C//DTD SVG 1.1//EN" "http://www.w3.org/Graphics/SVG/1.1/DTD/svg11.dtd"><svg xmlns="http://www.w3.org/2000/svg" version="1.2" baseProfile="tiny" shape-rendering="crispEdges" viewBox="0 0 704 439" viewport-fill="rgb(255,255,255)" viewport-fill-opacity="1" fill="rgb(0,0,0)" fill-opacity="1" style="background-color:rgb(255,255,255);background-color:rgba(1);"><rect x="185" y="53" width="9" height="63"/><rect x="185" y="125" width="9" height="27"/><rect x="185" y="161" width="18" height="9"/><rect x="185" y="188" width="18" height="27"/><rect x="185" y="233" width="18" height="18"/><rect x="185" y="260" width="18" height="18"/><rect x="185" y="287" width="9" height="9"/><rect x="185" y="305" width="45" height="9"/><rect x="185" y="323" width="9" height="63"/><rect x="194" y="53" width="54" height="9"/><rect x="194" y="107" width="54" height="9"/><rect x="194" y="125" width="9" height="9"/><rect x="194" y="152" width="9" height="27"/><rect x="194" y="251" width="9" height="36"/><rect x="194" y="296" width="36" height="18"/><rect x="194" y="323" width="54" height="9"/><rect x="194" y="377" width="54" height="9"/><rect x="203" y="71" width="27" height="27"/><rect x="203" y="143" width="9" height="9"/><rect x="203" y="179" width="9" height="9"/><rect x="203" y="197" width="9" height="36"/><rect x="203" y="260" width="9" height="9"/><rect x="203" y="278" width="9" height="36"/><rect x="203" y="341" width="27" height="27"/><rect x="212" y="125" width="9" height="9"/><rect x="212" y="152" width="9" height="18"/><rect x="212" y="188" width="9" height="18"/><rect x="212" y="233" width="18" height="9"/><rect x="212" y="251" width="9" height="9"/><rect x="221" y="143" width="9" height="9"/><rect x="221" y="161" width="9" height="9"/><rect x="221" y="179" width="9" height="9"/><rect x="221" y="260" width="9" height="18"/><rect x="221" y="287" width="9" height="27"/><rect x="230" y="134" width="9" height="9"/><rect x="230" y="152" width="9" height="9"/><rect x="230" y="206" width="9" height="18"/><rect x="230" y="242" width="9" height="18"/><rect x="230" y="269" width="9" height="18"/><rect x="239" y="62" width="9" height="54"/><rect x="239" y="125" width="18" height="9"/><rect x="239" y="143" width="18" height="9"/><rect x="239" y="161" width="9" height="9"/><rect x="239" y="179" width="18" height="9"/><rect x="239" y="197" width="18" height="9"/><rect x="239" y="215" width="9" height="9"/><rect x="239" y="233" width="36" height="9"/><rect x="239" y="251" width="9" height="9"/><rect x="239" y="269" width="9" height="9"/><rect x="239" y="287" width="9" height="9"/><rect x="239" y="305" width="18" height="9"/><rect x="239" y="332" width="9" height="54"/><rect x="248" y="134" width="9" height="27"/><rect x="248" y="188" width="9" height="27"/><rect x="248" y="260" width="27" height="9"/><rect x="248" y="296" width="9" height="18"/><rect x="257" y="62" width="9" height="18"/><rect x="257" y="89" width="9" height="36"/><rect x="257" y="134" width="36" height="9"/><rect x="257" y="161" width="9" height="18"/><rect x="257" y="188" width="9" height="9"/><rect x="257" y="206" width="9" height="45"/><rect x="257" y="278" width="9" height="27"/><rect x="257" y="314" width="9" height="18"/><rect x="257" y="350" width="9" height="9"/><rect x="257" y="368" width="9" height="18"/><rect x="266" y="53" width="9" height="9"/><rect x="266" y="71" width="27" height="18"/><rect x="266" y="98" width="9" height="9"/><rect x="266" y="116" width="9" height="9"/><rect x="266" y="161" width="9" height="9"/><rect x="266" y="179" width="18" height="9"/><rect x="266" y="242" width="45" height="9"/><rect x="266" y="269" width="27" height="9"/><rect x="266" y="287" width="9" height="27"/><rect x="266" y="332" width="18" height="9"/><rect x="266" y="359" width="9" height="18"/><rect x="275" y="107" width="9" height="9"/><rect x="275" y="125" width="9" height="18"/><rect x="275" y="152" width="9" height="9"/><rect x="275" y="188" width="9" height="9"/><rect x="275" y="206" width="9" height="9"/><rect x="275" y="224" width="18" height="9"/><rect x="275" y="251" width="45" height="9"/><rect x="275" y="278" width="18" height="9"/><rect x="275" y="296" width="9" height="27"/><rect x="275" y="350" width="18" height="9"/><rect x="284" y="62" width="9" height="27"/><rect x="284" y="98" width="9" height="9"/><rect x="284" y="170" width="18" height="9"/><rect x="284" y="197" width="9" height="9"/><rect x="284" y="233" width="9" height="72"/><rect x="284" y="323" width="18" height="9"/><rect x="293" y="53" width="9" height="27"/><rect x="293" y="107" width="9" height="18"/><rect x="293" y="161" width="9" height="36"/><rect x="293" y="233" width="9" height="36"/><rect x="293" y="305" width="9" height="36"/><rect x="293" y="377" width="9" height="9"/><rect x="302" y="89" width="9" height="18"/><rect x="302" y="188" width="18" height="18"/><rect x="302" y="215" width="9" height="18"/><rect x="302" y="260" width="9" height="9"/><rect x="302" y="278" width="18" height="18"/><rect x="302" y="305" width="9" height="18"/><rect x="311" y="53" width="18" height="18"/><rect x="311" y="80" width="9" height="18"/><rect x="311" y="107" width="9" height="18"/><rect x="311" y="152" width="9" height="9"/><rect x="311" y="233" width="18" height="9"/><rect x="311" y="269" width="9" height="27"/><rect x="311" y="314" width="9" height="27"/><rect x="311" y="350" width="9" height="9"/><rect x="311" y="368" width="18" height="9"/><rect x="320" y="71" width="9" height="9"/><rect x="320" y="89" width="18" height="18"/><rect x="320" y="188" width="9" height="9"/><rect x="320" y="224" width="9" height="18"/><rect x="320" y="269" width="27" height="9"/><rect x="320" y="332" width="18" height="18"/><rect x="329" y="107" width="9" height="36"/><rect x="329" y="197" width="9" height="18"/><rect x="329" y="260" width="9" height="18"/><rect x="329" y="296" width="36" height="9"/><rect x="329" y="314" width="18" height="9"/><rect x="329" y="350" width="9" height="18"/><rect x="329" y="377" width="18" height="9"/><rect x="338" y="71" width="18" height="9"/><rect x="338" y="116" width="18" height="9"/><rect x="338" y="134" width="18" height="9"/><rect x="338" y="161" width="9" height="9"/><rect x="338" y="179" width="9" height="18"/><rect x="338" y="206" width="9" height="27"/><rect x="338" y="242" width="9" height="18"/><rect x="338" y="278" width="9" height="45"/><rect x="338" y="332" width="18" height="9"/><rect x="338" y="350" width="18" height="9"/><rect x="347" y="53" width="9" height="36"/><rect x="347" y="98" width="9" height="27"/><rect x="347" y="188" width="36" height="9"/><rect x="347" y="206" width="9" height="9"/><rect x="347" y="224" width="9" height="9"/><rect x="347" y="251" width="18" height="18"/><rect x="347" y="287" width="9" height="18"/><rect x="347" y="359" width="18" height="9"/><rect x="356" y="53" width="18" height="9"/><rect x="356" y="98" width="27" height="9"/><rect x="356" y="125" width="9" height="9"/><rect x="356" y="143" width="9" height="18"/><rect x="356" y="170" width="36" height="9"/><rect x="356" y="233" width="9" height="9"/><rect x="356" y="278" width="18" height="9"/><rect x="356" y="368" width="9" height="9"/><rect x="365" y="71" width="9" height="9"/><rect x="365" y="107" width="9" height="18"/><rect x="365" y="134" width="9" height="9"/><rect x="365" y="152" width="18" height="45"/><rect x="365" y="206" width="45" height="9"/><rect x="365" y="224" width="18" height="9"/><rect x="365" y="242" width="27" height="9"/><rect x="365" y="287" width="9" height="9"/><rect x="365" y="305" width="9" height="9"/><rect x="365" y="323" width="18" height="18"/><rect x="365" y="350" width="9" height="9"/><rect x="365" y="377" width="18" height="9"/><rect x="374" y="116" width="9" height="18"/><rect x="374" y="143" width="9" height="72"/><rect x="374" y="233" width="9" height="18"/><rect x="374" y="260" width="9" height="18"/><rect x="374" y="296" width="18" height="9"/><rect x="374" y="341" width="9" height="9"/><rect x="374" y="368" width="9" height="18"/><rect x="383" y="53" width="18" height="18"/><rect x="383" y="80" width="27" height="9"/><rect x="383" y="107" width="9" height="9"/><rect x="383" y="143" width="9" height="9"/><rect x="383" y="161" width="9" height="18"/><rect x="383" y="197" width="9" height="18"/><rect x="383" y="251" width="9" height="9"/><rect x="383" y="278" width="9" height="9"/><rect x="383" y="305" width="27" height="18"/><rect x="383" y="359" width="9" height="18"/><rect x="392" y="89" width="9" height="9"/><rect x="392" y="116" width="18" height="9"/><rect x="392" y="179" width="9" height="9"/><rect x="392" y="233" width="9" height="9"/><rect x="392" y="287" width="9" height="9"/><rect x="392" y="341" width="9" height="9"/><rect x="392" y="368" width="9" height="18"/><rect x="401" y="62" width="9" height="27"/><rect x="401" y="98" width="9" height="27"/><rect x="401" y="152" width="9" height="27"/><rect x="401" y="197" width="9" height="27"/><rect x="401" y="242" width="9" height="9"/><rect x="401" y="260" width="18" height="9"/><rect x="401" y="278" width="9" height="9"/><rect x="401" y="296" width="9" height="27"/><rect x="401" y="350" width="9" height="9"/><rect x="401" y="368" width="18" height="9"/><rect x="410" y="53" width="36" height="9"/><rect x="410" y="125" width="36" height="9"/><rect x="410" y="152" width="9" height="18"/><rect x="410" y="179" width="18" height="18"/><rect x="410" y="215" width="9" height="9"/><rect x="410" y="233" width="9" height="9"/><rect x="410" y="269" width="9" height="9"/><rect x="410" y="296" width="18" height="9"/><rect x="410" y="314" width="9" height="9"/><rect x="410" y="341" width="18" height="9"/><rect x="410" y="359" width="9" height="18"/><rect x="419" y="62" width="18" height="36"/><rect x="419" y="107" width="9" height="9"/><rect x="419" y="170" width="9" height="45"/><rect x="419" y="224" width="36" height="9"/><rect x="419" y="242" width="9" height="9"/><rect x="419" y="278" width="9" height="27"/><rect x="428" y="98" width="9" height="9"/><rect x="428" y="152" width="9" height="18"/><rect x="428" y="188" width="18" height="9"/><rect x="428" y="260" width="27" height="9"/><rect x="428" y="323" width="18" height="9"/><rect x="428" y="359" width="27" height="18"/><rect x="437" y="89" width="9" height="9"/><rect x="437" y="107" width="9" height="9"/><rect x="437" y="134" width="27" height="18"/><rect x="437" y="161" width="9" height="9"/><rect x="437" y="179" width="9" height="18"/><rect x="437" y="206" width="9" height="9"/><rect x="437" y="233" width="9" height="45"/><rect x="437" y="287" width="54" height="9"/><rect x="437" y="305" width="9" height="81"/><rect x="446" y="152" width="45" height="9"/><rect x="446" y="170" width="27" height="9"/><rect x="446" y="197" width="27" height="9"/><rect x="446" y="215" width="9" height="18"/><rect x="446" y="242" width="27" height="9"/><rect x="446" y="269" width="18" height="9"/><rect x="446" y="305" width="54" height="9"/><rect x="446" y="341" width="36" height="9"/><rect x="455" y="53" width="9" height="63"/><rect x="455" y="125" width="9" height="54"/><rect x="455" y="188" width="9" height="27"/><rect x="455" y="233" width="9" height="18"/><rect x="455" y="278" width="18" height="36"/><rect x="455" y="323" width="9" height="9"/><rect x="455" y="377" width="27" height="9"/><rect x="464" y="53" width="54" height="9"/><rect x="464" y="107" width="54" height="9"/><rect x="464" y="125" width="18" height="9"/><rect x="464" y="143" width="9" height="45"/><rect x="464" y="224" width="18" height="9"/><rect x="464" y="251" width="54" height="9"/><rect x="464" y="350" width="18" height="9"/><rect x="464" y="368" width="18" height="18"/><rect x="473" y="71" width="27" height="27"/><rect x="473" y="179" width="18" height="18"/><rect x="473" y="206" width="9" height="9"/><rect x="473" y="233" width="18" height="9"/><rect x="473" y="314" width="9" height="72"/><rect x="482" y="134" width="18" height="9"/><rect x="482" y="215" width="9" height="9"/><rect x="482" y="269" width="9" height="9"/><rect x="482" y="323" width="9" height="18"/><rect x="491" y="125" width="9" height="27"/><rect x="491" y="197" width="9" height="18"/><rect x="491" y="224" width="18" height="9"/><rect x="491" y="278" width="9" height="9"/><rect x="491" y="332" width="18" height="9"/><rect x="491" y="350" width="9" height="18"/><rect x="500" y="125" width="9" height="9"/><rect x="500" y="152" width="18" height="9"/><rect x="500" y="188" width="9" height="9"/><rect x="500" y="206" width="9" height="27"/><rect x="500" y="269" width="18" height="9"/><rect x="500" y="296" width="9" height="9"/><rect x="500" y="323" width="9" height="27"/><rect x="500" y="359" width="18" height="9"/><rect x="500" y="377" width="18" height="9"/><rect x="509" y="62" width="9" height="54"/><rect x="509" y="134" width="9" height="54"/><rect x="509" y="197" width="9" height="27"/><rect x="509" y="233" width="9" height="27"/><rect x="509" y="278" width="9" height="18"/><rect x="509" y="314" width="9" height="18"/></svg>