<?xml version="1.0" standalone="no"?><!-- Created with ZXing.Net (http://zxingnet.codeplex.com/) --><!DOCTYPE svg PUBLIC "-//W3C//DTD SVG 1.1//EN" "http://www.w3.org/Graphics/SVG/1.1/DTD/svg11.dtd"><svg xmlns="http://www.w3.org/2000/svg" version="1.2" baseProfile="tiny" shape-rendering="crispEdges" viewBox="0 0 460 404" viewport-fill="rgb(255,255,255)" viewport-fill-opacity="1" fill="rgb(0,0,0)" fill-opacity="1" style="background-color:rgb(255,255,255);background-color:rgba(1);"><rect x="82" y="54" width="8" height="56"/><rect x="82" y="118" width="16" height="16"/><rect x="82" y="150" width="8" height="16"/><rect x="82" y="222" width="8" height="40"/><rect x="82" y="278" width="16" height="8"/><rect x="82" y="294" width="8" height="56"/><rect x="90" y="54" width="48" height="8"/><rect x="90" y="102" width="48" height="8"/><rect x="90" y="134" width="16" height="8"/><rect x="90" y="166" width="24" height="8"/><rect x="90" y="198" width="16" height="8"/><rect x="90" y="214" width="8" height="8"/><rect x="90" y="246" width="32" height="8"/><rect x="90" y="294" width="48" height="8"/><rect x="90" y="342" width="48" height="8"/><rect x="98" y="70" width="24" height="24"/><rect x="98" y="126" width="8" height="16"/><rect x="98" y="150" width="8" height="8"/><rect x="98" y="174" width="32" height="8"/><rect x="98" y="190" width="8" height="16"/><rect x="98" y="254" width="8" height="24"/><rect x="98" y="310" width="24" height="24"/><rect x="106" y="142" width="8" height="8"/><rect x="106" y="158" width="8" height="32"/><rect x="106" y="214" width="8" height="16"/><rect x="106" y="238" width="16" height="24"/><rect x="114" y="118" width="16" height="16"/><rect x="114" y="150" width="24" height="8"/><rect x="114" y="182" width="8" height="8"/><rect x="114" y="278" width="8" height="8"/><rect x="122" y="142" width="8" height="16"/><rect x="122" y="214" width="16" height="8"/><rect x="122" y="230" width="16" height="8"/><rect x="130" y="62" width="8" height="48"/><rect x="130" y="118" width="8" height="8"/><rect x="130" y="134" width="8" height="8"/><rect x="130" y="166" width="8" height="8"/><rect x="130" y="182" width="8" height="8"/><rect x="130" y="198" width="8" height="8"/><rect x="130" y="246" width="8" height="8"/><rect x="130" y="262" width="8" height="8"/><rect x="130" y="278" width="16" height="8"/><rect x="130" y="302" width="8" height="48"/><rect x="138" y="126" width="32" height="8"/><rect x="138" y="142" width="8" height="8"/><rect x="138" y="158" width="32" height="8"/><rect x="138" y="174" width="16" height="8"/><rect x="138" y="190" width="32" height="8"/><rect x="138" y="238" width="24" height="8"/><rect x="146" y="54" width="8" height="32"/><rect x="146" y="94" width="8" height="16"/><rect x="146" y="166" width="8" height="16"/><rect x="146" y="198" width="64" height="8"/><rect x="146" y="214" width="24" height="8"/><rect x="146" y="230" width="8" height="32"/><rect x="146" y="270" width="8" height="8"/><rect x="146" y="286" width="16" height="8"/><rect x="146" y="302" width="16" height="16"/><rect x="146" y="334" width="8" height="16"/><rect x="154" y="54" width="16" height="16"/><rect x="154" y="78" width="8" height="8"/><rect x="154" y="110" width="8" height="8"/><rect x="154" y="166" width="8" height="8"/><rect x="154" y="182" width="16" height="24"/><rect x="154" y="222" width="8" height="8"/><rect x="154" y="262" width="8" height="8"/><rect x="154" y="278" width="8" height="16"/><rect x="154" y="318" width="16" height="8"/><rect x="154" y="342" width="16" height="8"/><rect x="162" y="70" width="16" height="8"/><rect x="162" y="102" width="8" height="8"/><rect x="162" y="134" width="48" height="8"/><rect x="162" y="150" width="8" height="16"/><rect x="162" y="254" width="8" height="8"/><rect x="162" y="294" width="8" height="8"/><rect x="162" y="334" width="8" height="16"/><rect x="170" y="78" width="8" height="8"/><rect x="170" y="94" width="40" height="8"/><rect x="170" y="118" width="8" height="8"/><rect x="170" y="142" width="8" height="8"/><rect x="170" y="182" width="8" height="8"/><rect x="170" y="206" width="8" height="8"/><rect x="170" y="246" width="8" height="8"/><rect x="170" y="262" width="8" height="16"/><rect x="170" y="310" width="8" height="8"/><rect x="170" y="326" width="8" height="16"/><rect x="178" y="54" width="8" height="8"/><rect x="178" y="102" width="8" height="16"/><rect x="178" y="126" width="8" height="16"/><rect x="178" y="150" width="16" height="8"/><rect x="178" y="174" width="8" height="8"/><rect x="178" y="190" width="8" height="16"/><rect x="178" y="214" width="16" height="8"/><rect x="178" y="238" width="8" height="8"/><rect x="178" y="254" width="8" height="16"/><rect x="178" y="278" width="16" height="8"/><rect x="178" y="302" width="8" height="8"/><rect x="178" y="318" width="8" height="16"/><rect x="178" y="342" width="16" height="8"/><rect x="186" y="70" width="8" height="8"/><rect x="186" y="86" width="16" height="16"/><rect x="186" y="118" width="40" height="8"/><rect x="186" y="142" width="8" height="24"/><rect x="186" y="182" width="40" height="8"/><rect x="186" y="206" width="8" height="24"/><rect x="186" y="246" width="24" height="8"/><rect x="186" y="262" width="8" height="32"/><rect x="186" y="310" width="16" height="8"/><rect x="186" y="326" width="8" height="24"/><rect x="194" y="78" width="8" height="48"/><rect x="194" y="158" width="8" height="8"/><rect x="194" y="174" width="8" height="16"/><rect x="194" y="222" width="8" height="8"/><rect x="194" y="238" width="8" height="16"/><rect x="194" y="262" width="16" height="8"/><rect x="194" y="286" width="24" height="8"/><rect x="194" y="302" width="8" height="16"/><rect x="194" y="326" width="16" height="8"/><rect x="202" y="70" width="16" height="16"/><rect x="202" y="142" width="40" height="8"/><rect x="202" y="206" width="24" height="8"/><rect x="202" y="270" width="8" height="8"/><rect x="202" y="294" width="8" height="16"/><rect x="202" y="318" width="8" height="16"/><rect x="202" y="342" width="8" height="8"/><rect x="210" y="62" width="8" height="32"/><rect x="210" y="102" width="8" height="8"/><rect x="210" y="158" width="8" height="16"/><rect x="210" y="222" width="16" height="16"/><rect x="210" y="294" width="8" height="8"/><rect x="210" y="318" width="8" height="8"/><rect x="218" y="70" width="8" height="8"/><rect x="218" y="110" width="8" height="48"/><rect x="218" y="174" width="8" height="24"/><rect x="218" y="214" width="8" height="40"/><rect x="218" y="262" width="8" height="24"/><rect x="218" y="302" width="8" height="16"/><rect x="218" y="334" width="8" height="16"/><rect x="226" y="62" width="16" height="8"/><rect x="226" y="78" width="8" height="40"/><rect x="226" y="126" width="8" height="8"/><rect x="226" y="158" width="8" height="24"/><rect x="226" y="190" width="8" height="16"/><rect x="226" y="214" width="8" height="8"/><rect x="226" y="230" width="8" height="16"/><rect x="226" y="270" width="8" height="8"/><rect x="226" y="318" width="8" height="8"/><rect x="226" y="334" width="8" height="8"/><rect x="234" y="78" width="8" height="8"/><rect x="234" y="94" width="8" height="8"/><rect x="234" y="118" width="48" height="8"/><rect x="234" y="150" width="32" height="8"/><rect x="234" y="174" width="24" height="8"/><rect x="234" y="190" width="8" height="8"/><rect x="234" y="246" width="8" height="8"/><rect x="234" y="278" width="8" height="8"/><rect x="234" y="302" width="24" height="16"/><rect x="242" y="70" width="16" height="8"/><rect x="242" y="102" width="8" height="8"/><rect x="242" y="134" width="16" height="8"/><rect x="242" y="166" width="16" height="16"/><rect x="242" y="198" width="16" height="24"/><rect x="242" y="238" width="16" height="8"/><rect x="242" y="262" width="16" height="16"/><rect x="242" y="318" width="16" height="8"/><rect x="242" y="334" width="24" height="16"/><rect x="250" y="54" width="8" height="8"/><rect x="250" y="110" width="8" height="16"/><rect x="250" y="142" width="8" height="48"/><rect x="250" y="222" width="8" height="64"/><rect x="250" y="294" width="8" height="56"/><rect x="258" y="62" width="8" height="8"/><rect x="258" y="94" width="8" height="16"/><rect x="258" y="142" width="8" height="16"/><rect x="258" y="166" width="48" height="8"/><rect x="258" y="182" width="8" height="16"/><rect x="258" y="214" width="8" height="8"/><rect x="258" y="254" width="16" height="8"/><rect x="258" y="278" width="8" height="8"/><rect x="258" y="294" width="24" height="8"/><rect x="258" y="310" width="8" height="8"/><rect x="266" y="54" width="8" height="8"/><rect x="266" y="110" width="8" height="40"/><rect x="266" y="158" width="8" height="24"/><rect x="266" y="190" width="8" height="16"/><rect x="266" y="222" width="8" height="16"/><rect x="266" y="246" width="8" height="32"/><rect x="266" y="286" width="8" height="16"/><rect x="266" y="318" width="8" height="16"/><rect x="274" y="70" width="8" height="16"/><rect x="274" y="102" width="8" height="24"/><rect x="274" y="142" width="8" height="8"/><rect x="274" y="174" width="8" height="8"/><rect x="274" y="206" width="8" height="24"/><rect x="274" y="238" width="8" height="16"/><rect x="274" y="262" width="16" height="8"/><rect x="274" y="278" width="8" height="8"/><rect x="274" y="310" width="8" height="8"/><rect x="274" y="326" width="8" height="8"/><rect x="282" y="62" width="8" height="8"/><rect x="282" y="126" width="8" height="16"/><rect x="282" y="190" width="8" height="8"/><rect x="282" y="222" width="8" height="16"/><rect x="282" y="254" width="8" height="16"/><rect x="282" y="286" width="16" height="8"/><rect x="290" y="54" width="24" height="8"/><rect x="290" y="70" width="16" height="16"/><rect x="290" y="102" width="8" height="16"/><rect x="290" y="142" width="8" height="8"/><rect x="290" y="158" width="8" height="24"/><rect x="290" y="198" width="8" height="16"/><rect x="290" y="254" width="32" height="8"/><rect x="290" y="270" width="8" height="8"/><rect x="290" y="294" width="8" height="24"/><rect x="290" y="326" width="8" height="16"/><rect x="298" y="86" width="16" height="8"/><rect x="298" y="110" width="8" height="8"/><rect x="298" y="126" width="8" height="16"/><rect x="298" y="150" width="8" height="24"/><rect x="298" y="182" width="8" height="24"/><rect x="298" y="222" width="8" height="24"/><rect x="298" y="262" width="24" height="8"/><rect x="298" y="278" width="64" height="8"/><rect x="298" y="318" width="40" height="8"/><rect x="298" y="334" width="8" height="8"/><rect x="306" y="94" width="8" height="16"/><rect x="306" y="118" width="8" height="16"/><rect x="306" y="150" width="8" height="8"/><rect x="306" y="214" width="8" height="16"/><rect x="306" y="286" width="8" height="40"/><rect x="314" y="182" width="24" height="8"/><rect x="314" y="206" width="8" height="16"/><rect x="314" y="230" width="16" height="8"/><rect x="314" y="246" width="8" height="24"/><rect x="314" y="310" width="24" height="16"/><rect x="322" y="54" width="8" height="56"/><rect x="322" y="142" width="8" height="16"/><rect x="322" y="166" width="16" height="24"/><rect x="322" y="198" width="8" height="8"/><rect x="322" y="214" width="16" height="8"/><rect x="322" y="246" width="16" height="8"/><rect x="322" y="270" width="8" height="16"/><rect x="322" y="294" width="8" height="8"/><rect x="322" y="326" width="16" height="8"/><rect x="322" y="342" width="8" height="8"/><rect x="330" y="54" width="48" height="8"/><rect x="330" y="102" width="48" height="8"/><rect x="330" y="118" width="8" height="8"/><rect x="330" y="206" width="8" height="24"/><rect x="330" y="238" width="8" height="16"/><rect x="330" y="262" width="16" height="8"/><rect x="338" y="70" width="24" height="24"/><rect x="338" y="126" width="8" height="16"/><rect x="338" y="158" width="8" height="24"/><rect x="338" y="190" width="8" height="24"/><rect x="338" y="222" width="16" height="8"/><rect x="338" y="238" width="8" height="8"/><rect x="338" y="254" width="8" height="16"/><rect x="338" y="286" width="8" height="32"/><rect x="338" y="342" width="8" height="8"/><rect x="346" y="118" width="32" height="8"/><rect x="346" y="134" width="8" height="16"/><rect x="346" y="158" width="24" height="8"/><rect x="346" y="174" width="24" height="8"/><rect x="346" y="190" width="24" height="8"/><rect x="346" y="214" width="8" height="16"/><rect x="346" y="246" width="8" height="16"/><rect x="346" y="286" width="8" height="8"/><rect x="346" y="302" width="24" height="8"/><rect x="346" y="318" width="8" height="16"/><rect x="354" y="126" width="16" height="8"/><rect x="354" y="142" width="8" height="24"/><rect x="354" y="182" width="8" height="16"/><rect x="354" y="206" width="16" height="16"/><rect x="354" y="238" width="16" height="16"/><rect x="354" y="270" width="8" height="16"/><rect x="354" y="310" width="8" height="16"/><rect x="354" y="334" width="16" height="16"/><rect x="362" y="134" width="8" height="8"/><rect x="362" y="222" width="8" height="8"/><rect x="362" y="254" width="8" height="8"/><rect x="362" y="270" width="8" height="8"/><rect x="362" y="318" width="16" height="8"/><rect x="370" y="62" width="8" height="48"/><rect x="370" y="142" width="8" height="16"/><rect x="370" y="182" width="8" height="8"/><rect x="370" y="214" width="8" height="8"/><rect x="370" y="246" width="8" height="8"/><rect x="370" y="310" width="8" height="16"/><rect x="370" y="342" width="8" height="8"/></svg>