<?xml version="1.0" standalone="no"?><!-- Created with ZXing.Net (http://zxingnet.codeplex.com/) --><!DOCTYPE svg PUBLIC "-//W3C//DTD SVG 1.1//EN" "http://www.w3.org/Graphics/SVG/1.1/DTD/svg11.dtd"><svg xmlns="http://www.w3.org/2000/svg" version="1.2" baseProfile="tiny" shape-rendering="crispEdges" viewBox="0 0 460 404" viewport-fill="rgb(255,255,255)" viewport-fill-opacity="1" fill="rgb(0,0,0)" fill-opacity="1" style="background-color:rgb(255,255,255);background-color:rgba(1);"><rect x="81" y="53" width="9" height="63"/><rect x="81" y="125" width="18" height="18"/><rect x="81" y="152" width="9" height="9"/><rect x="81" y="197" width="9" height="9"/><rect x="81" y="242" width="9" height="36"/><rect x="81" y="287" width="9" height="63"/><rect x="90" y="53" width="54" height="9"/><rect x="90" y="107" width="54" height="9"/><rect x="90" y="179" width="9" height="18"/><rect x="90" y="206" width="9" height="9"/><rect x="90" y="224" width="36" height="9"/><rect x="90" y="242" width="9" height="9"/><rect x="90" y="287" width="54" height="9"/><rect x="90" y="341" width="54" height="9"/><rect x="99" y="71" width="27" height="27"/><rect x="99" y="125" width="27" height="9"/><rect x="99" y="143" width="9" height="18"/><rect x="99" y="170" width="9" height="18"/><rect x="99" y="215" width="9" height="27"/><rect x="99" y="260" width="27" height="9"/><rect x="99" y="305" width="27" height="27"/><rect x="108" y="134" width="18" height="9"/><rect x="108" y="161" width="9" height="18"/><rect x="108" y="197" width="45" height="9"/><rect x="108" y="215" width="9" height="18"/><rect x="117" y="152" width="18" height="9"/><rect x="117" y="170" width="18" height="9"/><rect x="117" y="188" width="18" height="18"/><rect x="126" y="143" width="9" height="36"/><rect x="126" y="215" width="45" height="9"/><rect x="126" y="233" width="9" height="18"/><rect x="126" y="269" width="18" height="9"/><rect x="135" y="62" width="9" height="54"/><rect x="135" y="125" width="45" height="9"/><rect x="135" y="143" width="9" height="9"/><rect x="135" y="161" width="9" height="9"/><rect x="135" y="179" width="9" height="9"/><rect x="135" y="233" width="9" height="9"/><rect x="135" y="251" width="27" height="9"/><rect x="135" y="296" width="9" height="54"/><rect x="144" y="134" width="27" height="9"/><rect x="144" y="152" width="9" height="9"/><rect x="144" y="170" width="36" height="9"/><rect x="144" y="206" width="9" height="18"/><rect x="144" y="242" width="9" height="27"/><rect x="153" y="62" width="18" height="9"/><rect x="153" y="80" width="18" height="9"/><rect x="153" y="98" width="9" height="18"/><rect x="153" y="260" width="36" height="9"/><rect x="153" y="278" width="9" height="18"/><rect x="153" y="305" width="18" height="45"/><rect x="162" y="53" width="9" height="36"/><rect x="162" y="143" width="9" height="54"/><rect x="162" y="224" width="9" height="9"/><rect x="162" y="287" width="9" height="63"/><rect x="171" y="71" width="18" height="9"/><rect x="171" y="89" width="9" height="27"/><rect x="171" y="152" width="18" height="9"/><rect x="171" y="242" width="9" height="36"/><rect x="171" y="296" width="27" height="9"/><rect x="171" y="314" width="9" height="27"/><rect x="180" y="62" width="9" height="27"/><rect x="180" y="143" width="9" height="27"/><rect x="180" y="206" width="9" height="9"/><rect x="180" y="242" width="9" height="9"/><rect x="180" y="269" width="9" height="18"/><rect x="180" y="314" width="9" height="9"/><rect x="180" y="332" width="18" height="9"/><rect x="189" y="62" width="9" height="9"/><rect x="189" y="89" width="18" height="9"/><rect x="189" y="107" width="9" height="27"/><rect x="189" y="143" width="9" height="9"/><rect x="189" y="161" width="18" height="18"/><rect x="189" y="197" width="54" height="9"/><rect x="189" y="215" width="45" height="9"/><rect x="189" y="233" width="27" height="9"/><rect x="189" y="269" width="18" height="9"/><rect x="189" y="305" width="27" height="9"/><rect x="189" y="323" width="9" height="18"/><rect x="198" y="80" width="9" height="18"/><rect x="198" y="125" width="9" height="18"/><rect x="198" y="206" width="9" height="18"/><rect x="198" y="287" width="9" height="9"/><rect x="198" y="341" width="27" height="9"/><rect x="207" y="62" width="27" height="18"/><rect x="207" y="98" width="9" height="36"/><rect x="207" y="143" width="27" height="9"/><rect x="207" y="161" width="18" height="9"/><rect x="207" y="188" width="9" height="18"/><rect x="207" y="251" width="27" height="18"/><rect x="207" y="296" width="9" height="27"/><rect x="207" y="332" width="18" height="18"/><rect x="216" y="80" width="18" height="9"/><rect x="216" y="98" width="9" height="9"/><rect x="216" y="116" width="18" height="9"/><rect x="216" y="152" width="9" height="18"/><rect x="216" y="179" width="9" height="9"/><rect x="216" y="224" width="18" height="9"/><rect x="216" y="269" width="9" height="9"/><rect x="216" y="287" width="18" height="18"/><rect x="216" y="323" width="9" height="27"/><rect x="225" y="53" width="9" height="45"/><rect x="225" y="107" width="9" height="18"/><rect x="225" y="134" width="9" height="18"/><rect x="225" y="170" width="9" height="9"/><rect x="225" y="188" width="9" height="54"/><rect x="225" y="278" width="9" height="27"/><rect x="225" y="314" width="18" height="18"/><rect x="234" y="98" width="18" height="9"/><rect x="234" y="125" width="9" height="9"/><rect x="234" y="161" width="9" height="9"/><rect x="234" y="233" width="9" height="9"/><rect x="234" y="251" width="18" height="9"/><rect x="234" y="269" width="9" height="27"/><rect x="234" y="305" width="9" height="27"/><rect x="234" y="341" width="9" height="9"/><rect x="243" y="71" width="9" height="9"/><rect x="243" y="107" width="9" height="9"/><rect x="243" y="152" width="45" height="9"/><rect x="243" y="170" width="9" height="18"/><rect x="243" y="224" width="9" height="9"/><rect x="243" y="269" width="9" height="9"/><rect x="243" y="314" width="36" height="9"/><rect x="243" y="332" width="18" height="9"/><rect x="252" y="53" width="18" height="9"/><rect x="252" y="89" width="54" height="9"/><rect x="252" y="116" width="27" height="9"/><rect x="252" y="161" width="9" height="18"/><rect x="252" y="206" width="18" height="9"/><rect x="252" y="242" width="18" height="9"/><rect x="252" y="278" width="36" height="9"/><rect x="252" y="296" width="9" height="9"/><rect x="261" y="62" width="9" height="18"/><rect x="261" y="98" width="9" height="27"/><rect x="261" y="134" width="9" height="27"/><rect x="261" y="188" width="9" height="27"/><rect x="261" y="233" width="9" height="36"/><rect x="261" y="287" width="45" height="9"/><rect x="261" y="341" width="9" height="9"/><rect x="270" y="71" width="27" height="9"/><rect x="270" y="134" width="9" height="9"/><rect x="270" y="188" width="18" height="18"/><rect x="270" y="215" width="9" height="18"/><rect x="270" y="260" width="9" height="9"/><rect x="270" y="296" width="9" height="9"/><rect x="270" y="323" width="18" height="18"/><rect x="279" y="62" width="9" height="36"/><rect x="279" y="107" width="9" height="9"/><rect x="279" y="125" width="9" height="9"/><rect x="279" y="143" width="9" height="18"/><rect x="279" y="179" width="9" height="27"/><rect x="279" y="224" width="9" height="18"/><rect x="279" y="251" width="9" height="9"/><rect x="279" y="269" width="9" height="27"/><rect x="279" y="305" width="9" height="9"/><rect x="279" y="341" width="27" height="9"/><rect x="288" y="53" width="9" height="9"/><rect x="288" y="80" width="18" height="18"/><rect x="288" y="116" width="18" height="9"/><rect x="288" y="134" width="9" height="9"/><rect x="288" y="170" width="9" height="9"/><rect x="288" y="197" width="9" height="18"/><rect x="288" y="224" width="18" height="9"/><rect x="288" y="242" width="9" height="9"/><rect x="288" y="296" width="18" height="9"/><rect x="288" y="332" width="9" height="18"/><rect x="297" y="62" width="9" height="9"/><rect x="297" y="107" width="9" height="18"/><rect x="297" y="161" width="18" height="9"/><rect x="297" y="188" width="18" height="18"/><rect x="297" y="215" width="9" height="18"/><rect x="297" y="260" width="9" height="54"/><rect x="297" y="323" width="9" height="9"/><rect x="306" y="125" width="9" height="9"/><rect x="306" y="143" width="9" height="9"/><rect x="306" y="215" width="27" height="9"/><rect x="306" y="233" width="9" height="9"/><rect x="306" y="260" width="9" height="18"/><rect x="306" y="305" width="9" height="18"/><rect x="315" y="53" width="9" height="63"/><rect x="315" y="134" width="9" height="9"/><rect x="315" y="170" width="18" height="9"/><rect x="315" y="188" width="18" height="9"/><rect x="315" y="206" width="9" height="18"/><rect x="315" y="242" width="9" height="18"/><rect x="315" y="269" width="36" height="9"/><rect x="315" y="287" width="9" height="9"/><rect x="315" y="305" width="36" height="9"/><rect x="315" y="323" width="9" height="9"/><rect x="315" y="341" width="9" height="9"/><rect x="324" y="53" width="54" height="9"/><rect x="324" y="107" width="54" height="9"/><rect x="324" y="125" width="9" height="9"/><rect x="324" y="143" width="18" height="9"/><rect x="324" y="161" width="9" height="18"/><rect x="324" y="260" width="9" height="18"/><rect x="324" y="314" width="18" height="9"/><rect x="324" y="332" width="9" height="9"/><rect x="333" y="71" width="27" height="27"/><rect x="333" y="152" width="9" height="18"/><rect x="333" y="179" width="18" height="9"/><rect x="333" y="197" width="9" height="9"/><rect x="333" y="233" width="9" height="9"/><rect x="333" y="278" width="9" height="45"/><rect x="342" y="125" width="9" height="9"/><rect x="342" y="170" width="9" height="18"/><rect x="342" y="206" width="9" height="27"/><rect x="342" y="242" width="9" height="36"/><rect x="342" y="296" width="9" height="18"/><rect x="342" y="323" width="9" height="27"/><rect x="351" y="152" width="9" height="9"/><rect x="351" y="188" width="9" height="9"/><rect x="351" y="224" width="9" height="9"/><rect x="351" y="242" width="9" height="27"/><rect x="351" y="296" width="9" height="9"/><rect x="351" y="314" width="9" height="9"/><rect x="351" y="332" width="9" height="9"/><rect x="360" y="125" width="9" height="18"/><rect x="360" y="170" width="9" height="18"/><rect x="360" y="197" width="9" height="27"/><rect x="360" y="233" width="9" height="27"/><rect x="360" y="287" width="9" height="9"/><rect x="360" y="323" width="9" height="9"/><rect x="360" y="341" width="9" height="9"/><rect x="369" y="62" width="9" height="54"/><rect x="369" y="134" width="9" height="9"/><rect x="369" y="170" width="9" height="9"/><rect x="369" y="206" width="9" height="9"/><rect x="369" y="242" width="9" height="9"/><rect x="369" y="269" width="9" height="18"/><rect x="369" y="305" width="9" height="9"/></svg>