<?xml version="1.0" standalone="no"?><!-- Created with ZXing.Net (http://zxingnet.codeplex.com/) --><!DOCTYPE svg PUBLIC "-//W3C//DTD SVG 1.1//EN" "http://www.w3.org/Graphics/SVG/1.1/DTD/svg11.dtd"><svg xmlns="http://www.w3.org/2000/svg" version="1.2" baseProfile="tiny" shape-rendering="crispEdges" viewBox="0 0 460 404" viewport-fill="rgb(255,255,255)" viewport-fill-opacity="1" fill="rgb(0,0,0)" fill-opacity="1" style="background-color:rgb(255,255,255);background-color:rgba(1);"><rect x="66" y="38" width="8" height="56"/><rect x="66" y="102" width="16" height="8"/><rect x="66" y="118" width="56" height="8"/><rect x="66" y="150" width="8" height="16"/><rect x="66" y="182" width="24" height="16"/><rect x="66" y="206" width="8" height="8"/><rect x="66" y="254" width="40" height="8"/><rect x="66" y="270" width="8" height="32"/><rect x="66" y="310" width="8" height="56"/><rect x="74" y="38" width="48" height="8"/><rect x="74" y="86" width="48" height="8"/><rect x="74" y="134" width="8" height="8"/><rect x="74" y="174" width="16" height="24"/><rect x="74" y="230" width="24" height="8"/><rect x="74" y="278" width="8" height="8"/><rect x="74" y="310" width="48" height="8"/><rect x="74" y="358" width="48" height="8"/><rect x="82" y="54" width="24" height="24"/><rect x="82" y="110" width="16" height="24"/><rect x="82" y="142" width="8" height="24"/><rect x="82" y="206" width="16" height="8"/><rect x="82" y="246" width="8" height="16"/><rect x="82" y="270" width="16" height="8"/><rect x="82" y="294" width="8" height="8"/><rect x="82" y="326" width="24" height="24"/><rect x="90" y="142" width="24" height="16"/><rect x="90" y="166" width="8" height="16"/><rect x="90" y="198" width="8" height="16"/><rect x="90" y="262" width="8" height="24"/><rect x="98" y="110" width="8" height="16"/><rect x="98" y="158" width="8" height="16"/><rect x="98" y="182" width="8" height="16"/><rect x="98" y="238" width="8" height="8"/><rect x="98" y="278" width="8" height="16"/><rect x="106" y="102" width="24" height="8"/><rect x="106" y="134" width="8" height="24"/><rect x="106" y="166" width="16" height="8"/><rect x="106" y="190" width="8" height="8"/><rect x="106" y="206" width="8" height="16"/><rect x="106" y="230" width="48" height="8"/><rect x="106" y="262" width="16" height="8"/><rect x="106" y="286" width="8" height="8"/><rect x="114" y="46" width="8" height="48"/><rect x="114" y="134" width="8" height="8"/><rect x="114" y="150" width="32" height="8"/><rect x="114" y="182" width="8" height="8"/><rect x="114" y="198" width="24" height="8"/><rect x="114" y="214" width="16" height="8"/><rect x="114" y="246" width="8" height="8"/><rect x="114" y="278" width="48" height="8"/><rect x="114" y="294" width="8" height="8"/><rect x="114" y="318" width="8" height="48"/><rect x="122" y="110" width="32" height="8"/><rect x="122" y="222" width="16" height="16"/><rect x="122" y="254" width="16" height="8"/><rect x="130" y="62" width="16" height="16"/><rect x="130" y="86" width="8" height="8"/><rect x="130" y="118" width="8" height="8"/><rect x="130" y="158" width="8" height="8"/><rect x="130" y="174" width="16" height="8"/><rect x="130" y="206" width="8" height="8"/><rect x="130" y="238" width="8" height="8"/><rect x="130" y="262" width="8" height="8"/><rect x="130" y="286" width="8" height="40"/><rect x="130" y="350" width="16" height="16"/><rect x="138" y="78" width="24" height="8"/><rect x="138" y="94" width="8" height="8"/><rect x="138" y="126" width="16" height="8"/><rect x="138" y="166" width="8" height="16"/><rect x="138" y="214" width="32" height="8"/><rect x="138" y="246" width="8" height="8"/><rect x="138" y="270" width="8" height="24"/><rect x="138" y="334" width="8" height="8"/><rect x="146" y="46" width="8" height="16"/><rect x="146" y="70" width="8" height="24"/><rect x="146" y="118" width="8" height="24"/><rect x="146" y="158" width="8" height="8"/><rect x="146" y="182" width="16" height="16"/><rect x="146" y="206" width="8" height="16"/><rect x="146" y="238" width="32" height="8"/><rect x="146" y="254" width="8" height="16"/><rect x="146" y="286" width="8" height="24"/><rect x="154" y="62" width="8" height="24"/><rect x="154" y="94" width="16" height="16"/><rect x="154" y="134" width="8" height="8"/><rect x="154" y="174" width="8" height="32"/><rect x="154" y="222" width="8" height="8"/><rect x="154" y="302" width="8" height="8"/><rect x="154" y="318" width="8" height="8"/><rect x="154" y="342" width="8" height="24"/><rect x="162" y="38" width="8" height="16"/><rect x="162" y="70" width="8" height="8"/><rect x="162" y="86" width="8" height="24"/><rect x="162" y="118" width="16" height="16"/><rect x="162" y="142" width="8" height="8"/><rect x="162" y="158" width="8" height="8"/><rect x="162" y="198" width="8" height="8"/><rect x="162" y="270" width="16" height="8"/><rect x="162" y="286" width="8" height="16"/><rect x="162" y="310" width="8" height="8"/><rect x="162" y="326" width="64" height="8"/><rect x="162" y="342" width="8" height="8"/><rect x="162" y="358" width="24" height="8"/><rect x="170" y="38" width="8" height="8"/><rect x="170" y="102" width="8" height="40"/><rect x="170" y="166" width="8" height="8"/><rect x="170" y="182" width="64" height="8"/><rect x="170" y="206" width="8" height="8"/><rect x="170" y="246" width="16" height="16"/><rect x="170" y="278" width="8" height="8"/><rect x="170" y="294" width="40" height="8"/><rect x="170" y="334" width="16" height="8"/><rect x="178" y="54" width="8" height="72"/><rect x="178" y="150" width="32" height="8"/><rect x="178" y="190" width="24" height="8"/><rect x="178" y="214" width="8" height="16"/><rect x="178" y="262" width="8" height="8"/><rect x="178" y="302" width="24" height="8"/><rect x="178" y="318" width="8" height="24"/><rect x="186" y="54" width="8" height="32"/><rect x="186" y="94" width="16" height="8"/><rect x="186" y="110" width="8" height="16"/><rect x="186" y="134" width="8" height="8"/><rect x="186" y="166" width="8" height="40"/><rect x="186" y="222" width="16" height="8"/><rect x="186" y="238" width="24" height="16"/><rect x="186" y="278" width="8" height="8"/><rect x="186" y="310" width="16" height="8"/><rect x="186" y="350" width="8" height="8"/><rect x="194" y="54" width="8" height="24"/><rect x="194" y="86" width="8" height="16"/><rect x="194" y="118" width="16" height="8"/><rect x="194" y="158" width="8" height="8"/><rect x="194" y="174" width="8" height="24"/><rect x="194" y="262" width="8" height="8"/><rect x="194" y="318" width="8" height="24"/><rect x="202" y="38" width="8" height="8"/><rect x="202" y="78" width="16" height="8"/><rect x="202" y="102" width="8" height="56"/><rect x="202" y="166" width="8" height="8"/><rect x="202" y="206" width="8" height="16"/><rect x="202" y="254" width="32" height="8"/><rect x="202" y="278" width="32" height="8"/><rect x="202" y="334" width="8" height="8"/><rect x="202" y="358" width="8" height="8"/><rect x="210" y="62" width="8" height="32"/><rect x="210" y="102" width="8" height="8"/><rect x="210" y="126" width="8" height="8"/><rect x="210" y="142" width="24" height="8"/><rect x="210" y="174" width="24" height="16"/><rect x="210" y="198" width="8" height="8"/><rect x="210" y="222" width="16" height="8"/><rect x="210" y="238" width="32" height="8"/><rect x="210" y="270" width="24" height="16"/><rect x="210" y="302" width="8" height="16"/><rect x="218" y="70" width="24" height="8"/><rect x="218" y="110" width="8" height="8"/><rect x="218" y="134" width="16" height="16"/><rect x="218" y="158" width="8" height="32"/><rect x="218" y="206" width="8" height="8"/><rect x="218" y="230" width="8" height="16"/><rect x="218" y="286" width="8" height="8"/><rect x="218" y="334" width="16" height="8"/><rect x="226" y="54" width="16" height="24"/><rect x="226" y="86" width="8" height="24"/><rect x="226" y="118" width="16" height="8"/><rect x="226" y="150" width="24" height="8"/><rect x="226" y="190" width="8" height="8"/><rect x="226" y="214" width="8" height="8"/><rect x="226" y="246" width="8" height="16"/><rect x="226" y="294" width="8" height="8"/><rect x="226" y="318" width="8" height="8"/><rect x="226" y="342" width="8" height="24"/><rect x="234" y="38" width="8" height="8"/><rect x="234" y="110" width="8" height="16"/><rect x="234" y="206" width="24" height="8"/><rect x="234" y="230" width="8" height="16"/><rect x="234" y="302" width="16" height="16"/><rect x="234" y="342" width="16" height="8"/><rect x="242" y="54" width="8" height="8"/><rect x="242" y="86" width="8" height="8"/><rect x="242" y="102" width="8" height="8"/><rect x="242" y="126" width="24" height="8"/><rect x="242" y="158" width="8" height="8"/><rect x="242" y="190" width="8" height="40"/><rect x="242" y="246" width="8" height="16"/><rect x="242" y="270" width="16" height="8"/><rect x="242" y="286" width="8" height="40"/><rect x="242" y="334" width="8" height="16"/><rect x="242" y="358" width="16" height="8"/><rect x="250" y="70" width="8" height="8"/><rect x="250" y="110" width="8" height="8"/><rect x="250" y="134" width="8" height="16"/><rect x="250" y="166" width="8" height="32"/><rect x="250" y="230" width="8" height="16"/><rect x="250" y="278" width="8" height="16"/><rect x="250" y="302" width="8" height="8"/><rect x="250" y="326" width="8" height="16"/><rect x="250" y="350" width="8" height="16"/><rect x="258" y="62" width="48" height="8"/><rect x="258" y="78" width="8" height="32"/><rect x="258" y="166" width="16" height="8"/><rect x="258" y="182" width="8" height="24"/><rect x="258" y="222" width="8" height="8"/><rect x="258" y="262" width="48" height="8"/><rect x="258" y="286" width="8" height="16"/><rect x="258" y="310" width="8" height="8"/><rect x="258" y="326" width="16" height="8"/><rect x="266" y="78" width="8" height="8"/><rect x="266" y="102" width="16" height="8"/><rect x="266" y="118" width="24" height="8"/><rect x="266" y="150" width="48" height="8"/><rect x="266" y="182" width="8" height="8"/><rect x="266" y="198" width="8" height="24"/><rect x="266" y="230" width="8" height="8"/><rect x="266" y="270" width="8" height="16"/><rect x="266" y="294" width="16" height="16"/><rect x="266" y="334" width="32" height="16"/><rect x="266" y="358" width="24" height="8"/><rect x="274" y="46" width="8" height="8"/><rect x="274" y="86" width="8" height="8"/><rect x="274" y="110" width="16" height="16"/><rect x="274" y="142" width="24" height="16"/><rect x="274" y="190" width="16" height="16"/><rect x="274" y="214" width="8" height="16"/><rect x="274" y="246" width="8" height="24"/><rect x="274" y="278" width="8" height="48"/><rect x="274" y="350" width="8" height="16"/><rect x="282" y="126" width="16" height="8"/><rect x="282" y="166" width="8" height="56"/><rect x="282" y="238" width="16" height="16"/><rect x="282" y="270" width="8" height="16"/><rect x="282" y="302" width="8" height="16"/><rect x="290" y="46" width="8" height="32"/><rect x="290" y="86" width="8" height="16"/><rect x="290" y="134" width="8" height="32"/><rect x="290" y="214" width="8" height="16"/><rect x="290" y="286" width="8" height="8"/><rect x="290" y="310" width="8" height="8"/><rect x="290" y="326" width="8" height="24"/><rect x="298" y="46" width="8" height="8"/><rect x="298" y="70" width="16" height="8"/><rect x="298" y="102" width="8" height="16"/><rect x="298" y="166" width="8" height="8"/><rect x="298" y="182" width="8" height="8"/><rect x="298" y="198" width="8" height="8"/><rect x="298" y="214" width="16" height="8"/><rect x="298" y="278" width="32" height="8"/><rect x="298" y="294" width="8" height="16"/><rect x="298" y="342" width="16" height="8"/><rect x="298" y="358" width="8" height="8"/><rect x="306" y="38" width="8" height="8"/><rect x="306" y="78" width="8" height="16"/><rect x="306" y="110" width="16" height="8"/><rect x="306" y="142" width="8" height="24"/><rect x="306" y="206" width="8" height="24"/><rect x="306" y="238" width="56" height="8"/><rect x="306" y="254" width="16" height="8"/><rect x="306" y="270" width="24" height="16"/><rect x="306" y="310" width="24" height="8"/><rect x="306" y="350" width="8" height="8"/><rect x="314" y="62" width="8" height="8"/><rect x="314" y="102" width="8" height="16"/><rect x="314" y="126" width="8" height="24"/><rect x="314" y="174" width="16" height="16"/><rect x="314" y="206" width="8" height="8"/><rect x="314" y="230" width="16" height="16"/><rect x="314" y="262" width="16" height="32"/><rect x="314" y="326" width="24" height="16"/><rect x="322" y="54" width="8" height="8"/><rect x="322" y="70" width="8" height="32"/><rect x="322" y="118" width="16" height="8"/><rect x="322" y="134" width="8" height="16"/><rect x="322" y="190" width="8" height="16"/><rect x="322" y="214" width="8" height="32"/><rect x="322" y="294" width="8" height="48"/><rect x="330" y="110" width="8" height="24"/><rect x="330" y="182" width="16" height="16"/><rect x="330" y="214" width="8" height="16"/><rect x="330" y="246" width="8" height="16"/><rect x="330" y="294" width="48" height="8"/><rect x="330" y="350" width="8" height="16"/><rect x="338" y="38" width="8" height="56"/><rect x="338" y="126" width="8" height="24"/><rect x="338" y="158" width="16" height="8"/><rect x="338" y="174" width="8" height="24"/><rect x="338" y="230" width="8" height="16"/><rect x="338" y="254" width="24" height="8"/><rect x="338" y="270" width="8" height="16"/><rect x="338" y="310" width="8" height="8"/><rect x="338" y="326" width="32" height="8"/><rect x="338" y="342" width="24" height="8"/><rect x="338" y="358" width="16" height="8"/><rect x="346" y="38" width="48" height="8"/><rect x="346" y="86" width="48" height="8"/><rect x="346" y="110" width="8" height="16"/><rect x="346" y="142" width="8" height="48"/><rect x="346" y="198" width="8" height="8"/><rect x="346" y="214" width="24" height="16"/><rect x="346" y="246" width="16" height="16"/><rect x="346" y="270" width="24" height="8"/><rect x="346" y="350" width="8" height="16"/><rect x="354" y="54" width="24" height="24"/><rect x="354" y="102" width="16" height="16"/><rect x="354" y="126" width="16" height="8"/><rect x="354" y="142" width="8" height="16"/><rect x="354" y="174" width="8" height="8"/><rect x="354" y="206" width="16" height="24"/><rect x="354" y="286" width="8" height="48"/><rect x="362" y="150" width="16" height="16"/><rect x="362" y="182" width="16" height="8"/><rect x="362" y="198" width="8" height="32"/><rect x="362" y="286" width="8" height="32"/><rect x="362" y="350" width="16" height="8"/><rect x="370" y="110" width="16" height="8"/><rect x="370" y="166" width="8" height="8"/><rect x="370" y="198" width="8" height="8"/><rect x="370" y="214" width="8" height="8"/><rect x="370" y="238" width="8" height="32"/><rect x="370" y="278" width="8" height="8"/><rect x="370" y="310" width="8" height="8"/><rect x="370" y="342" width="8" height="24"/><rect x="378" y="126" width="16" height="8"/><rect x="378" y="142" width="16" height="8"/><rect x="378" y="174" width="8" height="8"/><rect x="378" y="190" width="8" height="8"/><rect x="378" y="206" width="8" height="8"/><rect x="378" y="230" width="8" height="8"/><rect x="378" y="302" width="8" height="8"/><rect x="378" y="318" width="8" height="8"/><rect x="378" y="334" width="16" height="8"/><rect x="386" y="46" width="8" height="48"/><rect x="386" y="158" width="8" height="8"/><rect x="386" y="182" width="8" height="8"/><rect x="386" y="198" width="8" height="8"/><rect x="386" y="238" width="8" height="8"/><rect x="386" y="254" width="8" height="8"/><rect x="386" y="270" width="8" height="16"/><rect x="386" y="326" width="8" height="16"/><rect x="386" y="350" width="8" height="8"/></svg>