<?xml version="1.0" standalone="no"?><!-- Created with ZXing.Net (http://zxingnet.codeplex.com/) --><!DOCTYPE svg PUBLIC "-//W3C//DTD SVG 1.1//EN" "http://www.w3.org/Graphics/SVG/1.1/DTD/svg11.dtd"><svg xmlns="http://www.w3.org/2000/svg" version="1.2" baseProfile="tiny" shape-rendering="crispEdges" viewBox="0 0 460 404" viewport-fill="rgb(255,255,255)" viewport-fill-opacity="1" fill="rgb(0,0,0)" fill-opacity="1" style="background-color:rgb(255,255,255);background-color:rgba(255, 255, 255, 1);"><rect x="66" y="38" width="8" height="56"/><rect x="66" y="102" width="16" height="16"/><rect x="66" y="126" width="8" height="8"/><rect x="66" y="142" width="24" height="8"/><rect x="66" y="166" width="8" height="40"/><rect x="66" y="230" width="8" height="16"/><rect x="66" y="262" width="8" height="40"/><rect x="66" y="310" width="8" height="56"/><rect x="74" y="38" width="48" height="8"/><rect x="74" y="86" width="48" height="8"/><rect x="74" y="118" width="8" height="8"/><rect x="74" y="150" width="8" height="40"/><rect x="74" y="206" width="8" height="8"/><rect x="74" y="222" width="8" height="16"/><rect x="74" y="262" width="16" height="16"/><rect x="74" y="310" width="48" height="8"/><rect x="74" y="358" width="48" height="8"/><rect x="82" y="54" width="24" height="24"/><rect x="82" y="102" width="24" height="8"/><rect x="82" y="158" width="16" height="16"/><rect x="82" y="214" width="8" height="16"/><rect x="82" y="238" width="8" height="16"/><rect x="82" y="294" width="56" height="8"/><rect x="82" y="326" width="24" height="24"/><rect x="90" y="150" width="8" height="24"/><rect x="90" y="182" width="16" height="8"/><rect x="90" y="198" width="8" height="16"/><rect x="90" y="230" width="8" height="8"/><rect x="90" y="246" width="8" height="24"/><rect x="98" y="134" width="8" height="24"/><rect x="98" y="190" width="16" height="8"/><rect x="98" y="214" width="8" height="16"/><rect x="98" y="238" width="16" height="8"/><rect x="98" y="270" width="16" height="8"/><rect x="98" y="286" width="8" height="16"/><rect x="106" y="110" width="8" height="8"/><rect x="106" y="158" width="8" height="24"/><rect x="106" y="214" width="24" height="8"/><rect x="106" y="230" width="8" height="16"/><rect x="106" y="254" width="8" height="8"/><rect x="114" y="46" width="8" height="48"/><rect x="114" y="102" width="72" height="8"/><rect x="114" y="118" width="8" height="8"/><rect x="114" y="134" width="24" height="8"/><rect x="114" y="150" width="8" height="8"/><rect x="114" y="166" width="16" height="8"/><rect x="114" y="182" width="8" height="8"/><rect x="114" y="198" width="8" height="8"/><rect x="114" y="230" width="8" height="8"/><rect x="114" y="246" width="8" height="8"/><rect x="114" y="262" width="8" height="8"/><rect x="114" y="278" width="32" height="8"/><rect x="114" y="318" width="8" height="48"/><rect x="122" y="110" width="8" height="8"/><rect x="122" y="158" width="8" height="24"/><rect x="122" y="206" width="8" height="24"/><rect x="122" y="254" width="8" height="8"/><rect x="122" y="270" width="16" height="32"/><rect x="130" y="46" width="16" height="8"/><rect x="130" y="62" width="32" height="8"/><rect x="130" y="78" width="8" height="16"/><rect x="130" y="118" width="8" height="8"/><rect x="130" y="158" width="8" height="8"/><rect x="130" y="182" width="8" height="8"/><rect x="130" y="206" width="16" height="8"/><rect x="130" y="230" width="8" height="24"/><rect x="130" y="262" width="8" height="56"/><rect x="130" y="326" width="8" height="40"/><rect x="138" y="38" width="8" height="40"/><rect x="138" y="190" width="8" height="40"/><rect x="138" y="238" width="8" height="16"/><rect x="138" y="262" width="8" height="24"/><rect x="138" y="342" width="8" height="8"/><rect x="138" y="358" width="8" height="8"/><rect x="146" y="54" width="16" height="16"/><rect x="146" y="78" width="8" height="16"/><rect x="146" y="110" width="8" height="32"/><rect x="146" y="174" width="24" height="8"/><rect x="146" y="198" width="8" height="8"/><rect x="146" y="222" width="16" height="16"/><rect x="146" y="254" width="8" height="8"/><rect x="146" y="310" width="8" height="24"/><rect x="146" y="350" width="16" height="8"/><rect x="154" y="110" width="8" height="16"/><rect x="154" y="134" width="8" height="8"/><rect x="154" y="214" width="8" height="32"/><rect x="154" y="262" width="8" height="8"/><rect x="154" y="302" width="16" height="8"/><rect x="154" y="342" width="8" height="24"/><rect x="162" y="38" width="8" height="8"/><rect x="162" y="54" width="8" height="8"/><rect x="162" y="70" width="40" height="8"/><rect x="162" y="86" width="8" height="32"/><rect x="162" y="126" width="16" height="8"/><rect x="162" y="142" width="16" height="8"/><rect x="162" y="158" width="8" height="24"/><rect x="162" y="190" width="8" height="16"/><rect x="162" y="214" width="16" height="8"/><rect x="162" y="238" width="16" height="8"/><rect x="162" y="270" width="16" height="8"/><rect x="162" y="286" width="8" height="8"/><rect x="162" y="326" width="8" height="8"/><rect x="162" y="342" width="8" height="8"/><rect x="162" y="358" width="24" height="8"/><rect x="170" y="110" width="8" height="24"/><rect x="170" y="150" width="32" height="8"/><rect x="170" y="166" width="24" height="8"/><rect x="170" y="230" width="8" height="32"/><rect x="170" y="294" width="40" height="8"/><rect x="170" y="334" width="16" height="8"/><rect x="178" y="54" width="8" height="8"/><rect x="178" y="78" width="8" height="32"/><rect x="178" y="118" width="16" height="8"/><rect x="178" y="134" width="8" height="8"/><rect x="178" y="158" width="16" height="16"/><rect x="178" y="190" width="8" height="8"/><rect x="178" y="206" width="32" height="8"/><rect x="178" y="230" width="8" height="8"/><rect x="178" y="246" width="16" height="8"/><rect x="178" y="262" width="16" height="8"/><rect x="178" y="286" width="16" height="16"/><rect x="178" y="318" width="8" height="8"/><rect x="178" y="342" width="16" height="8"/><rect x="186" y="46" width="24" height="8"/><rect x="186" y="142" width="8" height="32"/><rect x="186" y="182" width="16" height="8"/><rect x="186" y="254" width="8" height="48"/><rect x="186" y="310" width="16" height="8"/><rect x="186" y="326" width="48" height="8"/><rect x="186" y="350" width="8" height="8"/><rect x="194" y="38" width="8" height="24"/><rect x="194" y="86" width="8" height="16"/><rect x="194" y="110" width="16" height="8"/><rect x="194" y="126" width="8" height="16"/><rect x="194" y="174" width="8" height="24"/><rect x="194" y="222" width="8" height="16"/><rect x="194" y="254" width="8" height="8"/><rect x="194" y="302" width="8" height="16"/><rect x="194" y="358" width="16" height="8"/><rect x="202" y="62" width="8" height="8"/><rect x="202" y="102" width="8" height="24"/><rect x="202" y="134" width="8" height="8"/><rect x="202" y="166" width="24" height="8"/><rect x="202" y="198" width="8" height="24"/><rect x="202" y="230" width="8" height="16"/><rect x="202" y="262" width="8" height="16"/><rect x="202" y="334" width="8" height="8"/><rect x="210" y="54" width="32" height="8"/><rect x="210" y="70" width="16" height="8"/><rect x="210" y="86" width="8" height="8"/><rect x="210" y="126" width="40" height="8"/><rect x="210" y="142" width="8" height="40"/><rect x="210" y="190" width="8" height="16"/><rect x="210" y="238" width="24" height="8"/><rect x="210" y="262" width="8" height="8"/><rect x="210" y="286" width="8" height="8"/><rect x="210" y="302" width="8" height="16"/><rect x="210" y="342" width="8" height="8"/><rect x="218" y="38" width="16" height="8"/><rect x="218" y="62" width="8" height="16"/><rect x="218" y="102" width="8" height="16"/><rect x="218" y="174" width="24" height="8"/><rect x="218" y="198" width="8" height="8"/><rect x="218" y="254" width="8" height="8"/><rect x="218" y="294" width="16" height="16"/><rect x="218" y="318" width="8" height="24"/><rect x="218" y="350" width="8" height="8"/><rect x="226" y="86" width="8" height="16"/><rect x="226" y="110" width="8" height="24"/><rect x="226" y="142" width="8" height="8"/><rect x="226" y="158" width="24" height="8"/><rect x="226" y="182" width="8" height="8"/><rect x="226" y="206" width="8" height="16"/><rect x="226" y="246" width="24" height="8"/><rect x="226" y="270" width="8" height="64"/><rect x="234" y="94" width="8" height="8"/><rect x="234" y="110" width="8" height="8"/><rect x="234" y="150" width="8" height="16"/><rect x="234" y="190" width="8" height="8"/><rect x="234" y="222" width="8" height="8"/><rect x="234" y="254" width="8" height="8"/><rect x="234" y="270" width="8" height="8"/><rect x="234" y="286" width="8" height="8"/><rect x="234" y="310" width="8" height="16"/><rect x="234" y="350" width="16" height="8"/><rect x="242" y="46" width="8" height="8"/><rect x="242" y="62" width="8" height="8"/><rect x="242" y="78" width="8" height="16"/><rect x="242" y="102" width="48" height="8"/><rect x="242" y="118" width="8" height="16"/><rect x="242" y="166" width="8" height="8"/><rect x="242" y="182" width="8" height="8"/><rect x="242" y="198" width="8" height="8"/><rect x="242" y="214" width="8" height="8"/><rect x="242" y="230" width="8" height="8"/><rect x="242" y="262" width="16" height="8"/><rect x="242" y="278" width="8" height="8"/><rect x="242" y="294" width="8" height="8"/><rect x="242" y="318" width="8" height="16"/><rect x="242" y="342" width="8" height="16"/><rect x="250" y="38" width="24" height="8"/><rect x="250" y="70" width="8" height="8"/><rect x="250" y="110" width="8" height="8"/><rect x="250" y="142" width="8" height="8"/><rect x="250" y="174" width="8" height="8"/><rect x="250" y="190" width="16" height="8"/><rect x="250" y="206" width="8" height="8"/><rect x="250" y="222" width="16" height="8"/><rect x="250" y="238" width="8" height="8"/><rect x="250" y="254" width="8" height="24"/><rect x="250" y="302" width="8" height="8"/><rect x="250" y="334" width="8" height="8"/><rect x="258" y="46" width="8" height="8"/><rect x="258" y="62" width="24" height="8"/><rect x="258" y="86" width="8" height="24"/><rect x="258" y="134" width="32" height="8"/><rect x="258" y="150" width="16" height="8"/><rect x="258" y="166" width="16" height="8"/><rect x="258" y="230" width="32" height="8"/><rect x="258" y="246" width="8" height="8"/><rect x="258" y="294" width="24" height="8"/><rect x="258" y="318" width="8" height="16"/><rect x="258" y="342" width="32" height="8"/><rect x="258" y="358" width="32" height="8"/><rect x="266" y="174" width="8" height="16"/><rect x="266" y="198" width="16" height="24"/><rect x="266" y="262" width="8" height="8"/><rect x="266" y="302" width="8" height="16"/><rect x="274" y="46" width="8" height="24"/><rect x="274" y="78" width="8" height="64"/><rect x="274" y="158" width="8" height="8"/><rect x="274" y="182" width="32" height="8"/><rect x="274" y="246" width="16" height="8"/><rect x="274" y="278" width="8" height="32"/><rect x="274" y="318" width="8" height="32"/><rect x="282" y="46" width="8" height="16"/><rect x="282" y="78" width="24" height="8"/><rect x="282" y="94" width="8" height="16"/><rect x="282" y="118" width="8" height="8"/><rect x="282" y="150" width="16" height="8"/><rect x="282" y="166" width="24" height="8"/><rect x="282" y="190" width="8" height="16"/><rect x="282" y="214" width="8" height="24"/><rect x="282" y="262" width="8" height="8"/><rect x="282" y="278" width="8" height="16"/><rect x="282" y="310" width="8" height="8"/><rect x="282" y="326" width="8" height="8"/><rect x="282" y="350" width="8" height="16"/><rect x="290" y="38" width="24" height="16"/><rect x="290" y="70" width="8" height="32"/><rect x="290" y="110" width="8" height="8"/><rect x="290" y="142" width="8" height="16"/><rect x="290" y="174" width="16" height="16"/><rect x="290" y="206" width="8" height="16"/><rect x="290" y="238" width="8" height="8"/><rect x="290" y="270" width="104" height="8"/><rect x="290" y="286" width="8" height="24"/><rect x="290" y="334" width="16" height="8"/><rect x="298" y="62" width="8" height="24"/><rect x="298" y="102" width="8" height="8"/><rect x="298" y="134" width="8" height="8"/><rect x="298" y="198" width="8" height="16"/><rect x="298" y="230" width="8" height="8"/><rect x="298" y="262" width="16" height="16"/><rect x="298" y="294" width="8" height="24"/><rect x="298" y="358" width="8" height="8"/><rect x="306" y="70" width="16" height="8"/><rect x="306" y="86" width="8" height="16"/><rect x="306" y="118" width="8" height="8"/><rect x="306" y="142" width="64" height="8"/><rect x="306" y="158" width="24" height="8"/><rect x="306" y="190" width="16" height="8"/><rect x="306" y="206" width="8" height="16"/><rect x="306" y="238" width="56" height="8"/><rect x="306" y="254" width="8" height="24"/><rect x="306" y="286" width="8" height="8"/><rect x="306" y="302" width="24" height="16"/><rect x="306" y="342" width="8" height="8"/><rect x="314" y="38" width="16" height="8"/><rect x="314" y="94" width="16" height="24"/><rect x="314" y="126" width="8" height="24"/><rect x="314" y="166" width="8" height="16"/><rect x="314" y="206" width="16" height="8"/><rect x="314" y="230" width="8" height="16"/><rect x="314" y="254" width="8" height="8"/><rect x="314" y="318" width="16" height="8"/><rect x="314" y="334" width="8" height="8"/><rect x="314" y="350" width="8" height="16"/><rect x="322" y="46" width="8" height="16"/><rect x="322" y="86" width="8" height="48"/><rect x="322" y="150" width="8" height="16"/><rect x="322" y="174" width="8" height="16"/><rect x="322" y="214" width="8" height="8"/><rect x="322" y="246" width="8" height="8"/><rect x="322" y="286" width="8" height="48"/><rect x="322" y="350" width="16" height="8"/><rect x="330" y="102" width="8" height="8"/><rect x="330" y="174" width="32" height="8"/><rect x="330" y="190" width="40" height="8"/><rect x="330" y="254" width="8" height="8"/><rect x="330" y="286" width="8" height="16"/><rect x="330" y="326" width="32" height="8"/><rect x="330" y="342" width="8" height="16"/><rect x="338" y="38" width="8" height="56"/><rect x="338" y="110" width="32" height="8"/><rect x="338" y="182" width="8" height="16"/><rect x="338" y="206" width="24" height="8"/><rect x="338" y="222" width="8" height="8"/><rect x="338" y="278" width="16" height="8"/><rect x="338" y="294" width="24" height="8"/><rect x="338" y="310" width="8" height="8"/><rect x="338" y="342" width="8" height="8"/><rect x="346" y="38" width="48" height="8"/><rect x="346" y="86" width="48" height="8"/><rect x="346" y="102" width="8" height="32"/><rect x="346" y="150" width="24" height="8"/><rect x="346" y="246" width="8" height="56"/><rect x="346" y="350" width="8" height="16"/><rect x="354" y="54" width="24" height="24"/><rect x="354" y="182" width="8" height="16"/><rect x="354" y="222" width="16" height="8"/><rect x="354" y="302" width="8" height="32"/><rect x="354" y="342" width="24" height="8"/><rect x="362" y="102" width="8" height="16"/><rect x="362" y="126" width="8" height="48"/><rect x="362" y="198" width="16" height="8"/><rect x="362" y="214" width="8" height="16"/><rect x="362" y="246" width="16" height="8"/><rect x="362" y="262" width="32" height="16"/><rect x="362" y="350" width="8" height="8"/><rect x="370" y="134" width="8" height="8"/><rect x="370" y="214" width="8" height="8"/><rect x="370" y="294" width="8" height="24"/><rect x="370" y="326" width="8" height="24"/><rect x="378" y="102" width="8" height="16"/><rect x="378" y="158" width="8" height="8"/><rect x="378" y="182" width="8" height="8"/><rect x="378" y="222" width="8" height="16"/><rect x="378" y="286" width="16" height="24"/><rect x="378" y="318" width="16" height="8"/><rect x="378" y="350" width="8" height="8"/><rect x="386" y="46" width="8" height="48"/><rect x="386" y="134" width="8" height="16"/><rect x="386" y="174" width="8" height="8"/><rect x="386" y="190" width="8" height="8"/><rect x="386" y="206" width="8" height="8"/><rect x="386" y="230" width="8" height="16"/><rect x="386" y="254" width="8" height="24"/><rect x="386" y="334" width="8" height="8"/></svg>