<?xml version="1.0" standalone="no"?><!-- Created with ZXing.Net (http://zxingnet.codeplex.com/) --><!DOCTYPE svg PUBLIC "-//W3C//DTD SVG 1.1//EN" "http://www.w3.org/Graphics/SVG/1.1/DTD/svg11.dtd"><svg xmlns="http://www.w3.org/2000/svg" version="1.2" baseProfile="tiny" shape-rendering="crispEdges" viewBox="0 0 460 444" viewport-fill="rgb(255,255,255)" viewport-fill-opacity="1" fill="rgb(0,0,0)" fill-opacity="1" style="background-color:rgb(255,255,255);background-color:rgba(1);"><rect x="56" y="48" width="12" height="84"/><rect x="56" y="144" width="24" height="24"/><rect x="56" y="180" width="36" height="12"/><rect x="56" y="240" width="12" height="12"/><rect x="56" y="264" width="12" height="12"/><rect x="56" y="288" width="12" height="12"/><rect x="56" y="312" width="12" height="84"/><rect x="68" y="48" width="72" height="12"/><rect x="68" y="120" width="72" height="12"/><rect x="68" y="168" width="12" height="48"/><rect x="68" y="252" width="36" height="12"/><rect x="68" y="312" width="72" height="12"/><rect x="68" y="384" width="72" height="12"/><rect x="80" y="72" width="36" height="36"/><rect x="80" y="156" width="12" height="36"/><rect x="80" y="204" width="12" height="12"/><rect x="80" y="228" width="12" height="12"/><rect x="80" y="264" width="12" height="12"/><rect x="80" y="336" width="36" height="36"/><rect x="92" y="144" width="12" height="12"/><rect x="92" y="168" width="12" height="12"/><rect x="92" y="192" width="12" height="12"/><rect x="104" y="156" width="24" height="12"/><rect x="104" y="216" width="12" height="24"/><rect x="104" y="264" width="108" height="12"/><rect x="116" y="252" width="12" height="36"/><rect x="128" y="60" width="12" height="72"/><rect x="128" y="144" width="24" height="12"/><rect x="128" y="168" width="24" height="12"/><rect x="128" y="192" width="12" height="12"/><rect x="128" y="216" width="12" height="12"/><rect x="128" y="240" width="12" height="12"/><rect x="128" y="288" width="12" height="12"/><rect x="128" y="324" width="12" height="72"/><rect x="140" y="156" width="12" height="24"/><rect x="140" y="276" width="48" height="12"/><rect x="152" y="60" width="12" height="24"/><rect x="152" y="96" width="12" height="48"/><rect x="152" y="192" width="12" height="12"/><rect x="152" y="252" width="12" height="36"/><rect x="152" y="300" width="12" height="24"/><rect x="152" y="348" width="24" height="12"/><rect x="152" y="372" width="12" height="24"/><rect x="164" y="60" width="24" height="12"/><rect x="164" y="84" width="12" height="24"/><rect x="164" y="156" width="12" height="12"/><rect x="164" y="180" width="60" height="12"/><rect x="164" y="204" width="12" height="12"/><rect x="164" y="228" width="12" height="12"/><rect x="164" y="300" width="12" height="12"/><rect x="164" y="324" width="12" height="36"/><rect x="164" y="384" width="36" height="12"/><rect x="176" y="48" width="12" height="24"/><rect x="176" y="96" width="12" height="48"/><rect x="176" y="192" width="24" height="12"/><rect x="176" y="216" width="24" height="12"/><rect x="176" y="252" width="12" height="36"/><rect x="176" y="312" width="12" height="24"/><rect x="176" y="360" width="12" height="12"/><rect x="188" y="132" width="12" height="108"/><rect x="188" y="300" width="12" height="12"/><rect x="188" y="348" width="24" height="12"/><rect x="200" y="84" width="12" height="48"/><rect x="200" y="144" width="12" height="48"/><rect x="200" y="240" width="12" height="48"/><rect x="200" y="336" width="12" height="48"/><rect x="212" y="84" width="12" height="12"/><rect x="212" y="132" width="12" height="12"/><rect x="212" y="156" width="12" height="36"/><rect x="212" y="204" width="24" height="24"/><rect x="212" y="240" width="12" height="24"/><rect x="212" y="372" width="24" height="24"/><rect x="224" y="48" width="12" height="12"/><rect x="224" y="72" width="24" height="12"/><rect x="224" y="120" width="12" height="12"/><rect x="224" y="144" width="36" height="12"/><rect x="224" y="168" width="12" height="12"/><rect x="224" y="192" width="12" height="36"/><rect x="224" y="252" width="12" height="36"/><rect x="224" y="300" width="12" height="12"/><rect x="224" y="324" width="36" height="12"/><rect x="236" y="108" width="24" height="12"/><rect x="236" y="228" width="36" height="12"/><rect x="236" y="288" width="24" height="12"/><rect x="248" y="60" width="36" height="12"/><rect x="248" y="120" width="12" height="12"/><rect x="248" y="168" width="24" height="12"/><rect x="248" y="216" width="12" height="60"/><rect x="248" y="300" width="12" height="48"/><rect x="248" y="360" width="24" height="36"/><rect x="260" y="72" width="24" height="12"/><rect x="260" y="96" width="24" height="12"/><rect x="260" y="132" width="12" height="12"/><rect x="260" y="192" width="12" height="24"/><rect x="260" y="240" width="12" height="12"/><rect x="260" y="264" width="24" height="24"/><rect x="260" y="336" width="12" height="60"/><rect x="272" y="84" width="12" height="24"/><rect x="272" y="120" width="12" height="12"/><rect x="272" y="180" width="12" height="12"/><rect x="272" y="204" width="12" height="24"/><rect x="272" y="252" width="12" height="48"/><rect x="272" y="324" width="12" height="12"/><rect x="272" y="372" width="36" height="12"/><rect x="284" y="48" width="12" height="12"/><rect x="284" y="84" width="24" height="12"/><rect x="284" y="108" width="12" height="12"/><rect x="284" y="168" width="12" height="12"/><rect x="284" y="192" width="12" height="24"/><rect x="284" y="240" width="36" height="12"/><rect x="284" y="276" width="12" height="12"/><rect x="284" y="348" width="24" height="36"/><rect x="296" y="60" width="12" height="36"/><rect x="296" y="120" width="12" height="12"/><rect x="296" y="156" width="36" height="12"/><rect x="296" y="192" width="36" height="12"/><rect x="296" y="216" width="12" height="36"/><rect x="296" y="264" width="24" height="12"/><rect x="296" y="288" width="12" height="108"/><rect x="308" y="168" width="12" height="48"/><rect x="308" y="252" width="12" height="48"/><rect x="308" y="336" width="24" height="24"/><rect x="320" y="48" width="12" height="84"/><rect x="320" y="144" width="12" height="24"/><rect x="320" y="216" width="12" height="24"/><rect x="320" y="252" width="24" height="12"/><rect x="320" y="276" width="12" height="24"/><rect x="320" y="312" width="12" height="12"/><rect x="320" y="372" width="12" height="24"/><rect x="332" y="48" width="72" height="12"/><rect x="332" y="120" width="72" height="12"/><rect x="332" y="144" width="24" height="12"/><rect x="332" y="180" width="24" height="12"/><rect x="332" y="204" width="12" height="12"/><rect x="332" y="240" width="12" height="36"/><rect x="332" y="288" width="24" height="12"/><rect x="332" y="336" width="24" height="12"/><rect x="332" y="384" width="24" height="12"/><rect x="344" y="72" width="36" height="36"/><rect x="344" y="300" width="12" height="96"/><rect x="356" y="156" width="12" height="24"/><rect x="356" y="192" width="12" height="12"/><rect x="356" y="216" width="12" height="24"/><rect x="356" y="252" width="12" height="12"/><rect x="356" y="324" width="24" height="12"/><rect x="356" y="348" width="24" height="24"/><rect x="368" y="144" width="24" height="12"/><rect x="368" y="168" width="24" height="24"/><rect x="368" y="216" width="36" height="12"/><rect x="368" y="288" width="12" height="24"/><rect x="380" y="192" width="24" height="12"/><rect x="380" y="228" width="12" height="24"/><rect x="380" y="264" width="24" height="24"/><rect x="380" y="300" width="12" height="24"/><rect x="380" y="348" width="12" height="12"/><rect x="380" y="372" width="12" height="24"/><rect x="392" y="60" width="12" height="72"/><rect x="392" y="156" width="12" height="12"/><rect x="392" y="252" width="12" height="36"/><rect x="392" y="300" width="12" height="12"/><rect x="392" y="324" width="12" height="24"/><rect x="392" y="360" width="12" height="12"/></svg>